<?xml version="1.0" encoding="UTF-8"?>
<svg width="26px" height="21px" viewBox="0 0 26 21" version="1.1" xmlns="http://www.w3.org/2000/svg" xmlns:xlink="http://www.w3.org/1999/xlink">
    <!-- Generator: Sketch 44.1 (41455) - http://www.bohemiancoding.com/sketch -->
    <title>Shape</title>
    <desc>Created with Sketch.</desc>
    <defs></defs>
    <g id="Main" stroke="none" stroke-width="1" fill="none" fill-rule="evenodd">
        <g transform="translate(-1275.000000, -3434.000000)" id="twitter-logo-silhouette" fill-rule="nonzero" fill="#B8BFD2">
            <g transform="translate(1275.000000, 3434.000000)">
                <path d="M26,2.49883133 C25.0430556,2.91971687 24.016268,3.20515663 22.9374379,3.33259036 C24.0389967,2.67783735 24.8822124,1.63930723 25.2818562,0.405620482 C24.2485686,1.01196386 23.1080098,1.45224699 21.8927222,1.69092169 C20.919549,0.660445783 19.5353039,0.0185963855 17.9999444,0.0185963855 C15.0543824,0.0185963855 12.6660784,2.38919277 12.6660784,5.31131325 C12.6660784,5.72574699 12.7131928,6.1305241 12.8041928,6.51759036 C8.37204248,6.29662651 4.44192157,4.18890964 1.81154575,0.986156627 C1.3517451,1.7666988 1.0901732,2.67619277 1.0901732,3.64704217 C1.0901732,5.48386747 2.03250327,7.10457831 3.46224837,8.05278313 C2.58814706,8.02377108 1.76604575,7.78509639 1.04633007,7.38837349 L1.04633007,7.45449398 C1.04633007,10.0186024 2.8854902,12.1585783 5.32413725,12.6456265 C4.8773366,12.7649639 4.40619281,12.8310843 3.91877778,12.8310843 C3.57436275,12.8310843 3.24129085,12.7972229 2.91471895,12.7327048 C3.59382026,14.8372169 5.56298039,16.3676024 7.89605556,16.4095602 C6.0715098,17.8287048 3.77093464,18.6721205 1.2721732,18.6721205 C0.841643791,18.6721205 0.417571895,18.6463133 4.24836601e-05,18.5995482 C2.36073203,20.1041687 5.1633366,20.9814458 8.17551307,20.9814458 C17.9870294,20.9814458 23.3501667,12.9149578 23.3501667,5.9193012 L23.332281,5.23393373 C24.380183,4.49206024 25.2867418,3.55996386 26,2.49883133 Z" id="Shape"></path>
            </g>
        </g>
    </g>
</svg>