<?xml version="1.0" encoding="UTF-8"?>
<svg width="37px" height="71px" viewBox="0 0 37 71" version="1.1" xmlns="http://www.w3.org/2000/svg" xmlns:xlink="http://www.w3.org/1999/xlink">
    <!-- Generator: Sketch 44.1 (41455) - http://www.bohemiancoding.com/sketch -->
    <title>Combined Shape</title>
    <desc>Created with Sketch.</desc>
    <defs></defs>
    <g id="Main" stroke="none" stroke-width="1" fill="none" fill-rule="evenodd">
        <g transform="translate(-1442.000000, -2822.000000)" id="Group-6" fill="#FFFFFF">
            <g transform="translate(392.000000, 2624.000000)">
                <g id="Group-2">
                    <path d="M1028.47526,256.921714 L1028.47526,209.455844 C1028.47526,208.903559 1028.02754,208.455844 1027.47526,208.455844 L1027.45584,208.455844 L1027.45584,208.455844 C1026.90356,208.455844 1026.45584,208.903559 1026.45584,209.455844 L1026.45584,209.455844 L1026.45584,257.93142 L1026.45584,257.941125 C1026.45584,258.49341 1026.90356,258.941125 1027.45584,258.941125 L1075.94113,258.941125 C1076.49341,258.941125 1076.94113,258.49341 1076.94113,257.941125 L1076.94113,257.941125 L1076.94113,257.921714 C1076.94113,257.369429 1076.49341,256.921714 1075.94113,256.921714 L1028.47526,256.921714 Z" id="Combined-Shape" transform="translate(1051.698485, 233.698485) rotate(-135.000000) translate(-1051.698485, -233.698485) "></path>
                </g>
            </g>
        </g>
    </g>
</svg>