<?xml version="1.0" encoding="UTF-8"?>
<svg width="824px" height="590px" viewBox="0 0 824 590" version="1.1" xmlns="http://www.w3.org/2000/svg" xmlns:xlink="http://www.w3.org/1999/xlink">
    <!-- Generator: Sketch 44.1 (41455) - http://www.bohemiancoding.com/sketch -->
    <title>Group 2</title>
    <desc>Created with Sketch.</desc>
    <defs>
        <linearGradient x1="71.2638201%" y1="74.7789075%" x2="16.6950714%" y2="11.1895987%" id="linearGradient-1">
            <stop stop-color="#0A4E5E" stop-opacity="0" offset="0%"></stop>
            <stop stop-color="#064959" stop-opacity="0.2" offset="100%"></stop>
        </linearGradient>
        <linearGradient x1="71.2637789%" y1="74.7788618%" x2="16.6949192%" y2="11.1896115%" id="linearGradient-2">
            <stop stop-color="#0A4E5E" stop-opacity="0" offset="0%"></stop>
            <stop stop-color="#064959" stop-opacity="0.2" offset="100%"></stop>
        </linearGradient>
        <linearGradient x1="71.2642104%" y1="74.7788728%" x2="16.6952957%" y2="11.1893154%" id="linearGradient-3">
            <stop stop-color="#0A4E5E" stop-opacity="0" offset="0%"></stop>
            <stop stop-color="#064959" stop-opacity="0.2" offset="100%"></stop>
        </linearGradient>
        <linearGradient x1="75.6749173%" y1="81.6509523%" x2="9.78703922%" y2="0.424692692%" id="linearGradient-4">
            <stop stop-color="#0A4E5E" stop-opacity="0" offset="0%"></stop>
            <stop stop-color="#064959" stop-opacity="0.2" offset="100%"></stop>
        </linearGradient>
        <linearGradient x1="71.2637806%" y1="74.7788391%" x2="16.6950319%" y2="11.1895303%" id="linearGradient-5">
            <stop stop-color="#0A4E5E" stop-opacity="0" offset="0%"></stop>
            <stop stop-color="#064959" stop-opacity="0.2" offset="100%"></stop>
        </linearGradient>
        <linearGradient x1="71.2639783%" y1="74.7788391%" x2="16.6952296%" y2="11.1895303%" id="linearGradient-6">
            <stop stop-color="#0A4E5E" stop-opacity="0" offset="0%"></stop>
            <stop stop-color="#064959" stop-opacity="0.2" offset="100%"></stop>
        </linearGradient>
        <linearGradient x1="76.772612%" y1="81.3147928%" x2="8.06708992%" y2="0.951587881%" id="linearGradient-7">
            <stop stop-color="#0A4E5E" stop-opacity="0" offset="0%"></stop>
            <stop stop-color="#064959" stop-opacity="0.2" offset="100%"></stop>
        </linearGradient>
        <linearGradient x1="75.4125019%" y1="79.4767168%" x2="10.1969287%" y2="3.83276262%" id="linearGradient-8">
            <stop stop-color="#0A4E5E" stop-opacity="0" offset="0%"></stop>
            <stop stop-color="#064959" stop-opacity="0.2" offset="100%"></stop>
        </linearGradient>
        <linearGradient x1="77.1018663%" y1="81.7529629%" x2="7.55163233%" y2="0.267420931%" id="linearGradient-9">
            <stop stop-color="#0A4E5E" stop-opacity="0" offset="0%"></stop>
            <stop stop-color="#064959" stop-opacity="0.2" offset="100%"></stop>
        </linearGradient>
        <linearGradient x1="76.7721286%" y1="81.3152491%" x2="8.06737822%" y2="0.952044169%" id="linearGradient-10">
            <stop stop-color="#0A4E5E" stop-opacity="0" offset="0%"></stop>
            <stop stop-color="#064959" stop-opacity="0.2" offset="100%"></stop>
        </linearGradient>
        <linearGradient x1="92.5122977%" y1="50%" x2="3.13639815%" y2="50%" id="linearGradient-11">
            <stop stop-color="#C5EEEF" offset="0%"></stop>
            <stop stop-color="#BAE9EC" offset="20.14%"></stop>
            <stop stop-color="#9CDDE4" offset="55.62%"></stop>
            <stop stop-color="#6FCBD8" offset="100%"></stop>
        </linearGradient>
        <linearGradient x1="95.0583253%" y1="50.0001368%" x2="1.90535881%" y2="50.0001368%" id="linearGradient-12">
            <stop stop-color="#C5EEEF" offset="0%"></stop>
            <stop stop-color="#BAE9EC" offset="20.14%"></stop>
            <stop stop-color="#9CDDE4" offset="55.62%"></stop>
            <stop stop-color="#6FCBD8" offset="100%"></stop>
        </linearGradient>
        <linearGradient x1="102.627999%" y1="55.1601368%" x2="0.344573968%" y2="45.1316239%" id="linearGradient-13">
            <stop stop-color="#C5EEEF" offset="0%"></stop>
            <stop stop-color="#BAE9EC" offset="20.14%"></stop>
            <stop stop-color="#9CDDE4" offset="55.62%"></stop>
            <stop stop-color="#6FCBD8" offset="100%"></stop>
        </linearGradient>
        <linearGradient x1="50%" y1="-1.2181331%" x2="50%" y2="98.4447287%" id="linearGradient-14">
            <stop stop-color="#6FCBD8" stop-opacity="0" offset="0%"></stop>
            <stop stop-color="#6DC9D6" stop-opacity="0.0142" offset="1.42%"></stop>
            <stop stop-color="#4192A0" stop-opacity="0.3466" offset="34.66%"></stop>
            <stop stop-color="#216A7A" stop-opacity="0.6334" offset="63.34%"></stop>
            <stop stop-color="#0D5262" stop-opacity="0.8607" offset="86.07%"></stop>
            <stop stop-color="#064959" offset="100%"></stop>
        </linearGradient>
        <linearGradient x1="2.5925%" y1="49.5416002%" x2="109.735357%" y2="30.5976376%" id="linearGradient-15">
            <stop stop-color="#064959" stop-opacity="0" offset="0%"></stop>
            <stop stop-color="#064959" offset="100%"></stop>
        </linearGradient>
        <linearGradient x1="66.1929266%" y1="69.0628086%" x2="24.6687887%" y2="20.2208333%" id="linearGradient-16">
            <stop stop-color="#0A4E5E" stop-opacity="0" offset="0%"></stop>
            <stop stop-color="#064959" stop-opacity="0.2" offset="100%"></stop>
        </linearGradient>
        <linearGradient x1="63.7314039%" y1="49.5808571%" x2="-21.8505392%" y2="7.07501518%" id="linearGradient-17">
            <stop stop-color="#FFFFFF" stop-opacity="0" offset="0%"></stop>
            <stop stop-color="#FFFFFF" stop-opacity="0.4" offset="100%"></stop>
        </linearGradient>
        <linearGradient x1="50.000079%" y1="59.9275545%" x2="50.000079%" y2="-4.22644708%" id="linearGradient-18">
            <stop stop-color="#6FCBD8" stop-opacity="0" offset="0%"></stop>
            <stop stop-color="#6DC9D6" stop-opacity="0.0142" offset="1.42%"></stop>
            <stop stop-color="#4192A0" stop-opacity="0.3466" offset="34.66%"></stop>
            <stop stop-color="#216A7A" stop-opacity="0.6334" offset="63.34%"></stop>
            <stop stop-color="#0D5262" stop-opacity="0.8607" offset="86.07%"></stop>
            <stop stop-color="#064959" offset="100%"></stop>
        </linearGradient>
        <linearGradient x1="102.193609%" y1="55.1343309%" x2="0.753532767%" y2="45.1558929%" id="linearGradient-19">
            <stop stop-color="#C5EEEF" offset="0%"></stop>
            <stop stop-color="#BAE9EC" offset="20.14%"></stop>
            <stop stop-color="#9CDDE4" offset="55.62%"></stop>
            <stop stop-color="#6FCBD8" offset="100%"></stop>
        </linearGradient>
    </defs>
    <g id="Page-1" stroke="none" stroke-width="1" fill="none" fill-rule="evenodd">
        <g id="Group-2">
            <g id="Vrstva_26" transform="translate(43.000000, 277.000000)" fill-rule="nonzero">
                <polygon id="Shape" fill="url(#linearGradient-1)" points="449.499 190.275 323.053 263.279 196.607 190.032 323.053 117.028"></polygon>
                <polygon id="Shape" fill="url(#linearGradient-2)" points="279.911 231.19 140.159 311.876 0.408 230.921 140.159 150.235"></polygon>
                <polygon id="Shape" fill="url(#linearGradient-3)" points="243.288 225.598 193.281 254.47 143.273 225.502 193.281 196.63"></polygon>
                <polygon id="Shape" fill="url(#linearGradient-4)" points="265.697 247.027 247.993 255.074 197.985 226.106 215.689 218.059"></polygon>
                <polygon id="Shape" fill="url(#linearGradient-1)" points="643.32 74.161 516.874 147.165 390.428 73.918 516.874 0.914"></polygon>
                <polygon id="Shape" fill="url(#linearGradient-5)" points="817.113 240.01 690.667 313.014 564.221 239.767 690.667 166.763"></polygon>
                <polygon id="Shape" fill="url(#linearGradient-6)" points="761.851 216.645 635.405 289.649 508.959 216.402 635.405 143.398"></polygon>
                <polygon id="Shape" fill="url(#linearGradient-7)" points="765.407 238.86 752.485 246.108 689.33 209.524 702.253 202.276"></polygon>
                <polygon id="Shape" fill="url(#linearGradient-8)" points="631.617 290.589 610.833 302.774 547.678 266.19 568.462 254.005"></polygon>
                <polygon id="Shape" fill="url(#linearGradient-9)" points="442.716 162.172 431.499 168.367 368.344 131.783 379.561 125.588"></polygon>
                <polygon id="Shape" fill="url(#linearGradient-10)" points="119.624 110.756 106.701 118.004 43.546 81.42 56.469 74.172"></polygon>
            </g>
            <g id="Vrstva_35" transform="translate(64.000000, 246.000000)" fill-rule="nonzero">
                <g id="Group" transform="translate(20.000000, 84.000000)" fill="#2D3138">
                    <ellipse id="Oval" cx="10.372" cy="26.203" rx="9.703" ry="4.062"></ellipse>
                    <ellipse id="Oval" cx="10.372" cy="4.24" rx="9.703" ry="4.062"></ellipse>
                    <rect id="Rectangle-path" x="0.669" y="5.471" width="19.405" height="20.732"></rect>
                </g>
                <path d="M56.136,55.135 L56.146,55.135 L30.372,0.964 L4.598,55.135 L4.608,55.135 C2.229,59.39 0.861,64.286 0.861,69.507 C0.861,85.805 14.074,99.018 30.372,99.018 C46.67,99.018 59.883,85.805 59.883,69.507 C59.883,64.286 58.515,59.39 56.136,55.135 Z" id="Shape" fill="#194C54"></path>
                <path d="M56.146,55.135 L32.82,6.111 L13.068,55.135 L13.076,55.135 C11.062,59.39 9.903,64.286 9.903,69.507 C9.903,84.979 19.99,97.647 32.819,98.895 C47.969,97.647 59.882,84.979 59.882,69.507 C59.882,64.286 58.514,59.39 56.135,55.135 L56.146,55.135 Z" id="Shape" fill="#1D5E6D"></path>
            </g>
            <g id="Group" transform="translate(306.000000, 67.000000)" fill-rule="nonzero">
                <polygon id="Shape" fill="url(#linearGradient-11)" points="253.874 73.905 127.428 156.908 0.982 73.661 127.428 0.658"></polygon>
                <polygon id="Shape" fill="#C4F0F2" points="0.982 73.662 0.982 240.662 127.421 313.908 146.428 157.908"></polygon>
                <polygon id="Shape" fill="#6FCBD8" points="253.874 73.887 127.428 146.908 127.421 313.908 253.874 241.046"></polygon>
                <g transform="translate(220.000000, 96.000000)" id="Shape" fill="#4A96A3">
                    <polygon points="15.23 10.183 15.228 10.186 15.227 10.186"></polygon>
                    <polygon points="0.751 19.283 0.751 19.283 0.75 19.283"></polygon>
                    <path d="M22.159,1.992 C22.009,1.412 21.671,1.001 21.185,0.744 C20.428,0.348 19.306,0.298 17.831,0.645 C16.356,0.994 14.525,1.748 12.355,3.001 C9.461,4.673 7.172,6.531 5.522,8.319 C4.697,9.214 4.03,10.093 3.525,10.941 C3.038,11.76 2.7,12.561 2.551,13.314 C2.506,13.459 2.463,13.635 2.463,13.826 L2.463,14.079 L2.463,19.885 L2.463,20.138 L2.463,20.391 L2.463,25.943 L2.463,26.196 L2.463,26.449 L2.463,32.506 C2.463,32.655 2.492,32.777 2.533,32.88 C2.687,33.563 3.087,33.989 3.638,34.227 C4.488,34.59 5.716,34.544 7.21,34.15 C8.703,33.754 10.461,33.002 12.356,31.908 C14.877,30.451 17.155,28.674 18.892,26.877 C19.761,25.977 20.495,25.073 21.063,24.177 C21.619,23.297 22.024,22.404 22.18,21.537 C22.221,21.384 22.25,21.229 22.249,21.081 L22.249,15.024 L22.249,14.771 L22.249,14.518 L22.249,8.966 L22.249,8.713 L22.249,8.46 L22.249,2.654 L22.249,2.401 C22.248,2.211 22.204,2.085 22.159,1.992 Z M19.528,23.826 C18.134,25.613 15.538,27.92 12.355,29.754 C9.929,31.156 7.847,31.895 6.373,32.084 C5.637,32.18 5.053,32.136 4.664,31.987 C4.469,31.913 4.324,31.814 4.23,31.706 C4.135,31.598 4.094,31.487 4.082,31.393 L4.079,31.372 L4.075,31.354 L4.075,28.294 C5.705,28.728 8.477,28.079 12.355,25.847 C16.234,23.601 19.005,21.049 20.636,18.732 L20.636,21.793 L20.636,21.795 L20.632,21.818 L20.629,21.84 C20.617,21.948 20.575,22.108 20.48,22.325 C20.316,22.704 19.992,23.236 19.528,23.826 Z M4.171,12.72 C4.299,12.373 4.594,11.849 5.042,11.254 C5.714,10.359 6.718,9.301 7.963,8.24 C9.209,7.178 10.698,6.106 12.354,5.15 C14.878,3.692 17.015,2.953 18.49,2.796 C19.227,2.716 19.797,2.786 20.157,2.96 C20.337,3.046 20.463,3.157 20.537,3.27 C20.611,3.384 20.634,3.49 20.634,3.585 C20.634,3.68 20.612,3.812 20.537,4.012 C20.41,4.359 20.115,4.883 19.666,5.478 C18.994,6.373 17.99,7.431 16.745,8.492 C15.499,9.554 14.01,10.626 12.353,11.582 C9.829,13.04 7.692,13.779 6.217,13.936 C5.48,14.016 4.91,13.946 4.55,13.772 C4.37,13.686 4.244,13.575 4.17,13.462 C4.096,13.348 4.073,13.242 4.073,13.147 C4.075,13.051 4.097,12.92 4.171,12.72 Z M20.634,15.708 L20.62,15.807 L20.591,15.943 L20.56,16.046 L20.497,16.216 L20.44,16.346 L20.327,16.574 L20.247,16.718 C20.192,16.814 20.138,16.905 20.078,16.997 L19.989,17.131 C19.91,17.25 19.83,17.366 19.745,17.482 L19.668,17.585 L19.668,17.585 C19.562,17.725 19.453,17.866 19.337,18.008 L19.291,18.063 L19.29,18.064 C19.155,18.227 19.016,18.389 18.867,18.555 L18.864,18.558 L18.858,18.565 L18.85,18.574 C18.031,19.484 16.96,20.479 15.707,21.449 L15.688,21.464 L15.686,21.466 C15.444,21.653 15.194,21.84 14.938,22.026 L14.811,22.115 L14.807,22.118 C14.579,22.281 14.352,22.441 14.12,22.597 C14.022,22.663 13.909,22.733 13.791,22.811 C13.609,22.93 13.436,23.046 13.262,23.155 L13.263,23.155 C12.966,23.339 12.663,23.522 12.356,23.699 C12.049,23.876 11.747,24.042 11.45,24.2 C11.275,24.293 11.101,24.378 10.919,24.468 L10.917,24.469 C10.802,24.527 10.689,24.586 10.59,24.634 C10.359,24.745 10.131,24.847 9.903,24.948 L9.899,24.95 L9.772,25.007 C9.516,25.117 9.266,25.219 9.023,25.312 L9.003,25.32 C7.75,25.797 6.68,26.038 5.86,26.074 L5.858,26.074 L5.846,26.075 C5.696,26.081 5.556,26.079 5.422,26.072 L5.42,26.072 L5.374,26.07 C5.257,26.062 5.148,26.048 5.043,26.029 L4.967,26.016 C4.881,25.999 4.802,25.975 4.722,25.947 L4.633,25.916 C4.574,25.892 4.52,25.864 4.464,25.831 L4.384,25.78 L4.27,25.681 L4.212,25.617 L4.15,25.52 L4.119,25.452 L4.09,25.348 L4.077,25.28 L4.076,25.27 L4.085,25.138 L4.084,25.139 L4.092,25.005 C4.092,24.953 4.081,24.913 4.076,24.866 L4.076,22.238 C5.706,22.672 8.478,22.023 12.356,19.791 C16.235,17.545 19.006,14.993 20.637,12.675 L20.637,15.305 C20.632,15.358 20.621,15.411 20.621,15.463 L20.629,15.588 L20.628,15.589 L20.634,15.708 Z M20.619,9.404 L20.627,9.529 L20.626,9.53 L20.635,9.65 L20.621,9.748 L20.592,9.885 L20.561,9.988 L20.499,10.157 L20.441,10.288 L20.327,10.517 L20.248,10.659 C20.19,10.759 20.136,10.85 20.079,10.939 L19.987,11.078 L19.989,11.074 C19.911,11.191 19.831,11.307 19.745,11.424 L19.668,11.527 L19.668,11.527 C19.562,11.668 19.453,11.808 19.338,11.949 L19.294,12.001 L19.288,12.008 C19.153,12.172 19.013,12.335 18.864,12.501 L18.85,12.516 C18.032,13.425 16.962,14.419 15.71,15.388 L15.7,15.396 L15.694,15.4 L15.686,15.406 C15.443,15.594 15.193,15.781 14.937,15.966 L14.811,16.055 L14.807,16.058 L14.807,16.058 C14.581,16.22 14.353,16.38 14.12,16.538 L14.121,16.537 C14.023,16.603 13.91,16.674 13.792,16.751 C13.612,16.869 13.438,16.985 13.262,17.095 C12.965,17.279 12.663,17.46 12.356,17.638 C12.048,17.816 11.747,17.982 11.45,18.14 C11.276,18.232 11.101,18.317 10.918,18.409 L10.92,18.408 C10.802,18.467 10.689,18.527 10.59,18.574 L10.591,18.573 C10.358,18.684 10.13,18.787 9.904,18.887 L9.9,18.889 L9.774,18.946 C9.518,19.057 9.268,19.158 9.025,19.251 L9.018,19.254 L9.001,19.261 C7.75,19.736 6.681,19.977 5.862,20.014 L5.853,20.014 L5.85,20.014 L5.847,20.014 C5.697,20.021 5.557,20.019 5.423,20.011 L5.416,20.011 L5.373,20.01 C5.257,20.002 5.148,19.988 5.043,19.969 L4.966,19.955 C4.88,19.937 4.8,19.914 4.722,19.887 L4.632,19.855 C4.575,19.832 4.521,19.804 4.463,19.77 L4.384,19.719 L4.27,19.621 L4.212,19.557 L4.15,19.46 L4.119,19.392 L4.09,19.287 L4.077,19.219 L4.076,19.21 L4.085,19.078 L4.084,19.079 L4.092,18.945 C4.092,18.892 4.081,18.852 4.076,18.805 L4.076,16.195 L4.111,16.203 L4.111,16.203 C4.23,16.233 4.354,16.257 4.482,16.275 L4.485,16.275 L4.626,16.292 L4.631,16.292 C4.774,16.306 4.925,16.314 5.082,16.315 L5.082,16.315 L5.155,16.317 L5.162,16.317 L5.166,16.317 C5.354,16.314 5.55,16.301 5.752,16.28 C5.817,16.273 5.875,16.264 5.924,16.258 C6.087,16.238 6.254,16.211 6.425,16.179 L6.433,16.178 L6.428,16.179 C6.482,16.168 6.543,16.159 6.615,16.143 L6.613,16.143 C6.841,16.095 7.076,16.039 7.323,15.971 L7.327,15.97 L7.434,15.937 L7.434,15.937 C7.65,15.875 7.873,15.805 8.101,15.727 L8.1,15.727 C8.181,15.7 8.261,15.671 8.339,15.643 C8.559,15.564 8.784,15.478 9.016,15.384 L9.018,15.383 C9.066,15.363 9.123,15.343 9.192,15.314 L9.193,15.314 C9.481,15.194 9.777,15.062 10.081,14.921 C10.162,14.883 10.24,14.844 10.311,14.81 L10.312,14.81 C10.555,14.693 10.804,14.569 11.059,14.437 L11.057,14.438 C11.15,14.39 11.243,14.342 11.338,14.292 L11.339,14.292 C11.668,14.117 12.006,13.932 12.357,13.73 C12.708,13.527 13.046,13.322 13.375,13.117 L13.376,13.116 C13.47,13.057 13.563,12.998 13.656,12.938 L13.654,12.939 C13.909,12.777 14.157,12.614 14.401,12.45 L14.402,12.449 C14.472,12.402 14.55,12.351 14.631,12.295 C14.935,12.086 15.232,11.874 15.52,11.662 L15.521,11.661 C15.59,11.609 15.646,11.566 15.694,11.53 L15.697,11.528 C15.928,11.355 16.154,11.18 16.374,11.006 C16.452,10.944 16.532,10.88 16.613,10.814 C16.841,10.628 17.064,10.442 17.28,10.254 L17.28,10.254 L17.381,10.168 L17.388,10.162 L17.39,10.16 C17.638,9.943 17.873,9.726 18.1,9.513 L18.103,9.51 C18.169,9.447 18.229,9.388 18.285,9.334 L18.287,9.332 C18.458,9.166 18.625,9 18.789,8.832 C18.838,8.781 18.896,8.723 18.961,8.655 C19.163,8.443 19.359,8.23 19.547,8.015 L19.552,8.01 L19.631,7.916 L19.631,7.916 C19.788,7.734 19.939,7.552 20.083,7.372 L20.086,7.368 L20.227,7.188 L20.23,7.184 C20.359,7.017 20.483,6.85 20.602,6.683 L20.602,6.683 L20.637,6.634 L20.637,9.243 C20.63,9.298 20.619,9.351 20.619,9.404 Z M3.686,22.125 C3.686,22.125 3.687,22.126 3.688,22.126 L3.685,22.125 C3.685,22.124 3.686,22.124 3.686,22.125 Z"></path>
                    <polygon points="11.611 13.815 11.61 13.816 11.609 13.816"></polygon>
                    <polygon points="13.961 11.656 13.959 11.658 13.958 11.658"></polygon>
                </g>
            </g>
            <polygon id="Shape" fill="url(#linearGradient-12)" fill-rule="nonzero" points="733.674 276.885 607.228 359.888 480.782 276.642 607.228 203.638"></polygon>
            <polygon id="Shape" fill="#C4F0F2" fill-rule="nonzero" points="480.782 276.643 480.782 443.643 607.221 516.888 624.228 359.888"></polygon>
            <polygon id="Shape" fill="#6FCBD8" fill-rule="nonzero" points="733.674 276.867 607.228 349.888 607.221 516.888 733.674 444.026"></polygon>
            <polygon id="Shape" fill="#72BDC1" fill-rule="nonzero" points="607.177 210.848 607.228 342.96 492.86 276.867"></polygon>
            <polygon id="Shape" fill="#4A96A3" fill-rule="nonzero" points="607.228 342.96 721.674 276.885 607.177 210.848"></polygon>
            <polygon id="Shape" fill="url(#linearGradient-13)" fill-rule="nonzero" points="366.053 226.885 239.607 309.888 113.161 226.642 239.607 153.638"></polygon>
            <polygon id="Shape" fill="#C4F0F2" fill-rule="nonzero" points="113.161 226.643 113.161 393.643 239.6 466.888 259.607 311.888"></polygon>
            <polygon id="Shape" fill="#6FCBD8" fill-rule="nonzero" points="366.053 226.867 239.607 299.888 239.6 466.888 366.053 394.026"></polygon>
            <polygon id="Shape" fill="#72BDC1" fill-rule="nonzero" points="239.555 160.848 239.607 292.96 125.239 226.867"></polygon>
            <polygon id="Shape" fill="#4A96A3" fill-rule="nonzero" points="239.607 292.96 354.053 226.885 239.555 160.848"></polygon>
            <g id="Group" transform="translate(326.000000, 252.000000)" fill-rule="nonzero" fill="#4A96A3">
                <path d="M0.166,20.266 L0.166,37.453 C0.166,40.076 1.764,41.284 3.731,40.148 L25.815,27.398 C27.783,26.262 29.38,23.209 29.38,20.586 L29.38,3.399 C29.38,0.903 27.86,-0.247 25.987,0.834 L21.241,3.574 L21.128,2.98 C20.669,0.598 18.922,-0.238 16.883,0.939 L12.656,3.38 C10.623,4.554 8.876,7.407 8.411,10.323 L8.298,11.048 L3.558,13.785 C1.687,14.865 0.166,17.778 0.166,20.266 Z M8.883,12.658 C9.223,12.462 9.515,11.983 9.593,11.493 L9.837,9.937 C10.147,8.001 11.304,6.109 12.657,5.328 L16.884,2.887 C18.237,2.106 19.394,2.662 19.704,4.24 L19.948,5.514 C20.026,5.906 20.318,6.056 20.658,5.86 L25.982,2.786 C27.049,2.17 27.914,2.823 27.914,4.246 L27.914,21.433 C27.914,22.983 26.972,24.783 25.809,25.454 L3.731,38.201 C2.568,38.872 1.626,38.16 1.626,36.61 L1.626,19.423 C1.626,18 2.491,16.348 3.558,15.732 L8.883,12.658 L8.883,12.658 Z" id="Shape"></path>
                <path d="M5.109,17.691 C5.649,17.379 6.087,17.71 6.087,18.43 C6.087,19.15 5.649,19.987 5.109,20.298 C4.569,20.61 4.131,20.279 4.131,19.559 C4.131,18.839 4.569,18.003 5.109,17.691 Z" id="Shape"></path>
                <path d="M14.774,28.773 C18.155,26.821 20.909,21.558 20.909,17.051 C20.909,12.544 18.154,10.461 14.774,12.413 C11.393,14.365 8.639,19.62 8.639,24.135 C8.639,28.651 11.393,30.725 14.774,28.773 Z M14.774,14.361 C17.35,12.874 19.448,14.461 19.448,17.895 C19.448,21.329 17.349,25.339 14.774,26.826 C12.198,28.313 10.1,26.726 10.1,23.292 C10.1,19.858 12.198,15.848 14.774,14.361 Z" id="Shape"></path>
            </g>
            <g id="Group" transform="translate(697.000000, 300.000000)" fill-rule="nonzero" fill="#4A96A3">
                <path d="M22.402,5.933 C22.117,3.842 21.28,2.268 19.999,1.446 C18.576,0.531 16.726,0.643 14.799,1.755 C13.31,2.615 11.86,4.021 10.617,5.811 C9.583,7.299 8.723,8.999 8.116,10.765 C7.853,10.851 7.58,10.973 7.306,11.131 C4.98,12.474 3.086,16.092 3.086,19.194 C3.086,19.595 3.119,19.963 3.174,20.311 C1.669,22.64 0.755,25.517 0.755,28.02 C0.755,30.041 1.319,31.679 2.348,32.639 C3.404,33.62 4.8,33.756 6.289,33.006 C6.305,32.997 6.316,32.99 6.333,32.981 L11.04,30.263 C11.45,30.026 11.779,29.399 11.779,28.851 C11.779,28.303 11.451,28.055 11.04,28.292 L6.355,30.997 C4.116,32.107 2.234,30.355 2.234,27.159 C2.234,25.094 3.066,22.687 4.407,20.869 C4.719,20.448 4.85,19.869 4.73,19.486 C4.621,19.155 4.566,18.771 4.566,18.326 C4.566,16.312 5.798,13.959 7.308,13.087 C7.631,12.901 7.948,12.79 8.244,12.766 C8.605,12.733 9.005,12.283 9.169,11.728 C10.192,8.24 12.404,5.095 14.807,3.708 C18.036,1.844 20.702,3.53 21.008,7.63 C21.041,8.056 21.293,8.268 21.621,8.152 C24.057,7.3 25.896,9.238 25.896,12.661 C25.896,16.288 23.756,20.676 21.118,22.469 L17.084,24.798 C16.673,25.035 16.345,25.662 16.345,26.21 C16.345,26.758 16.673,27.006 17.084,26.769 L21.145,24.424 C21.161,24.415 21.178,24.405 21.2,24.392 C22.869,23.268 24.429,21.345 25.59,18.968 C26.745,16.608 27.374,14.07 27.374,11.808 C27.367,7.715 25.27,5.284 22.402,5.933 Z" id="Shape"></path>
                <path d="M18.5,18.709 C18.79,18.155 18.79,17.534 18.5,17.315 L14.587,14.357 C14.45,14.254 14.259,14.255 14.067,14.365 C13.875,14.475 13.684,14.688 13.547,14.957 L9.634,22.434 C9.344,22.988 9.344,23.609 9.634,23.828 C9.776,23.936 9.968,23.927 10.154,23.82 C10.34,23.713 10.532,23.507 10.674,23.228 L13.329,18.156 L13.329,34.423 C13.329,34.97 13.657,35.219 14.068,34.982 C14.479,34.745 14.807,34.118 14.807,33.57 L14.807,17.303 L17.462,19.31 C17.745,19.532 18.21,19.264 18.5,18.709 Z" id="Shape"></path>
            </g>
            <g id="Group" transform="translate(578.000000, 265.000000)" fill-rule="nonzero">
                <polygon id="Shape" fill="#FBC67B" points="41.094 0.628 0.575 23.941 58.244 59.676 98.762 34.116"></polygon>
                <polygon id="Shape" fill="#EFB065" points="0.575 23.941 0.575 61.475 29.228 77.96 58.244 61.208 58.244 57.429"></polygon>
                <polygon id="Shape" fill="#DD9343" points="98.762 34.116 98.762 37.815 58.244 61.208 58.244 57.429"></polygon>
                <polyline id="Shape" fill="#DD9343" points="21.745 11.761 79.414 45.248 80.028 44.894 22.359 11.407"></polyline>
            </g>
            <g id="Group" transform="translate(583.000000, 299.000000)" fill-rule="nonzero" fill="#BF7430">
                <path d="M7.902,5.89 C7.904,6.506 7.532,6.792 7.072,6.528 L1.032,3.061 C0.572,2.797 0.198,2.083 0.196,1.467 L0.196,1.467 C0.194,0.851 0.566,0.565 1.026,0.829 L7.066,4.296 C7.527,4.56 7.901,5.273 7.902,5.89 L7.902,5.89 Z" id="Shape"></path>
                <path d="M7.941,21.03 C7.943,21.646 7.571,21.932 7.111,21.668 L1.071,18.201 C0.611,17.937 0.237,17.223 0.235,16.607 L0.235,16.607 C0.233,15.991 0.605,15.705 1.065,15.969 L7.105,19.436 C7.565,19.7 7.94,20.414 7.941,21.03 L7.941,21.03 Z" id="Shape"></path>
                <path d="M6.68,12.691 C6.682,13.307 6.37,13.627 5.984,13.406 L0.918,10.498 C0.532,10.277 0.218,9.597 0.216,8.981 L0.216,8.981 C0.214,8.365 0.526,8.045 0.912,8.266 L5.979,11.174 C6.364,11.395 6.678,12.074 6.68,12.691 L6.68,12.691 Z" id="Shape"></path>
            </g>
            <g id="Group" transform="translate(527.000000, 243.000000)" fill-rule="nonzero">
                <polygon id="Shape" fill="#FBC67B" points="29.482 0.52 0.561 17.16 41.722 72.069 70.643 24.421"></polygon>
                <polygon id="Shape" fill="#EFB065" points="0.561 17.16 0.561 48.167 41.722 72.069 41.722 41.061"></polygon>
                <polygon id="Shape" fill="#DD9343" points="70.643 24.421 70.643 55.429 41.722 72.069 41.722 41.061"></polygon>
                <polyline id="Shape" fill="#DD9343" points="15.671 8.466 56.832 32.367 57.271 32.115 16.11 8.213"></polyline>
            </g>
            <polygon id="Shape" fill="url(#linearGradient-14)" fill-rule="nonzero" points="492.77 276.867 607.138 342.96 721.583 276.885 607.086 210.848"></polygon>
            <polygon id="Shape" fill="url(#linearGradient-14)" fill-rule="nonzero" points="125.239 226.867 239.607 292.96 354.053 226.885 239.555 160.848"></polygon>
            <g id="Group" transform="translate(578.000000, 192.000000)" fill-rule="nonzero">
                <polygon id="Shape" fill="#E8B06B" points="36.652 0.076 0.575 20.834 51.922 89.332 87.999 29.892"></polygon>
                <polygon id="Shape" fill="#E0A05A" points="0.575 20.834 0.575 59.515 51.922 89.332 51.922 50.65"></polygon>
                <polygon id="Shape" fill="#DD9343" points="87.999 29.892 87.999 68.574 51.922 89.332 51.922 50.65"></polygon>
                <polyline id="Shape" fill="#DD9343" points="19.424 9.988 70.771 39.805 71.318 39.49 19.971 9.673"></polyline>
            </g>
            <g id="Group" transform="translate(520.000000, 205.000000)" fill-rule="nonzero">
                <polygon id="Shape" fill="#FBC67B" points="21.138 0.194 0.471 12.085 29.885 51.323 50.551 17.274"></polygon>
                <polygon id="Shape" fill="#EFB065" points="0.471 12.085 0.471 34.243 29.885 51.323 29.885 29.165"></polygon>
                <polygon id="Shape" fill="#DD9343" points="50.551 17.274 50.551 39.432 29.885 51.323 29.885 29.165"></polygon>
                <polyline id="Shape" fill="#DD9343" points="11.269 5.872 40.682 22.952 40.996 22.772 11.582 5.692"></polyline>
            </g>
            <g id="Group" transform="translate(583.000000, 221.000000)" fill-rule="nonzero" fill="#BF7430">
                <path d="M7.902,6.051 C7.904,6.667 7.532,6.953 7.072,6.689 L1.032,3.222 C0.572,2.958 0.198,2.244 0.196,1.628 L0.196,1.628 C0.194,1.012 0.566,0.726 1.026,0.99 L7.066,4.457 C7.527,4.721 7.901,5.435 7.902,6.051 L7.902,6.051 Z" id="Shape"></path>
                <path d="M7.941,21.192 C7.943,21.808 7.571,22.094 7.111,21.83 L1.071,18.363 C0.611,18.099 0.237,17.385 0.235,16.769 L0.235,16.769 C0.233,16.153 0.605,15.867 1.065,16.131 L7.105,19.598 C7.565,19.862 7.94,20.575 7.941,21.192 L7.941,21.192 Z" id="Shape"></path>
                <path d="M6.68,12.852 C6.682,13.468 6.37,13.788 5.984,13.567 L0.918,10.659 C0.532,10.438 0.218,9.758 0.216,9.142 L0.216,9.142 C0.214,8.526 0.526,8.206 0.912,8.427 L5.979,11.335 C6.364,11.557 6.678,12.236 6.68,12.852 L6.68,12.852 Z" id="Shape"></path>
            </g>
            <g id="Group" transform="translate(531.000000, 267.000000)" fill-rule="nonzero" fill="#BF7430">
                <path d="M4.767,3.432 C4.768,3.792 4.551,3.958 4.283,3.804 L0.758,1.781 C0.49,1.627 0.271,1.21 0.27,0.851 L0.27,0.851 C0.269,0.491 0.486,0.325 0.754,0.479 L4.28,2.502 C4.547,2.656 4.766,3.073 4.767,3.432 L4.767,3.432 Z" id="Shape"></path>
                <path d="M4.789,12.269 C4.79,12.629 4.573,12.795 4.305,12.641 L0.78,10.618 C0.512,10.464 0.293,10.047 0.292,9.688 L0.292,9.688 C0.291,9.328 0.508,9.162 0.776,9.316 L4.302,11.339 C4.57,11.493 4.788,11.91 4.789,12.269 L4.789,12.269 Z" id="Shape"></path>
                <path d="M4.053,7.402 C4.054,7.762 3.872,7.949 3.647,7.819 L0.69,6.122 C0.465,5.993 0.281,5.596 0.281,5.237 L0.281,5.237 C0.28,4.877 0.462,4.69 0.687,4.82 L3.644,6.517 C3.869,6.646 4.052,7.042 4.053,7.402 L4.053,7.402 Z" id="Shape"></path>
            </g>
            <g id="Group" transform="translate(524.000000, 224.000000)" fill-rule="nonzero" fill="#BF7430">
                <path d="M4.436,2.83 C4.437,3.143 4.248,3.289 4.014,3.154 L0.941,1.391 C0.707,1.257 0.517,0.894 0.516,0.58 L0.516,0.58 C0.515,0.266 0.704,0.121 0.938,0.256 L4.011,2.019 C4.245,2.153 4.435,2.516 4.436,2.83 L4.436,2.83 Z" id="Shape"></path>
                <path d="M4.456,10.531 C4.457,10.844 4.268,10.99 4.034,10.855 L0.961,9.092 C0.727,8.958 0.537,8.595 0.536,8.281 L0.536,8.281 C0.535,7.968 0.724,7.822 0.958,7.957 L4.031,9.72 C4.264,9.855 4.455,10.218 4.456,10.531 L4.456,10.531 Z" id="Shape"></path>
                <path d="M3.814,6.289 C3.815,6.602 3.656,6.765 3.46,6.653 L0.883,5.174 C0.687,5.061 0.527,4.716 0.526,4.402 L0.526,4.402 C0.525,4.088 0.684,3.926 0.88,4.038 L3.457,5.517 C3.653,5.63 3.813,5.976 3.814,6.289 L3.814,6.289 Z" id="Shape"></path>
            </g>
            <g id="Group" transform="translate(154.000000, 123.000000)" fill-rule="nonzero">
                <path d="M130.807,97.508 L130.793,104.083 C130.514,111.973 124.737,119.7 113.728,126.056 C93.09,137.972 61.863,139.053 43.99,128.733 C35.43,123.791 31.483,117.11 31.961,110.151 L31.95,98.705 L130.807,97.508" id="Shape" fill="#194C54"></path>
                <path d="M113.734,112.649 C93.096,124.565 61.876,125.859 44.002,115.54 C26.129,105.221 28.37,87.196 49.009,75.28 C69.647,63.364 100.867,62.07 118.741,72.389 C136.614,82.708 134.373,100.733 113.734,112.649 Z" id="Shape" fill="#113A44"></path>
                <path d="M128.81,89.147 L129.386,40.401 L33.927,53.551 L33.927,71.962 L33.927,97.674 C33.924,97.8 33.91,97.928 33.91,98.054 C33.91,98.204 33.922,98.354 33.927,98.504 L33.927,98.592 L33.93,98.592 C34.033,101.278 34.878,103.889 36.568,106.398 C38.371,109.069 41.148,111.614 44.99,113.832 C52.665,118.274 63.202,120.542 74.29,120.535 C87.675,120.542 101.843,117.249 112.749,110.943 C118.205,107.794 122.26,104.237 124.915,100.619 C127.573,96.995 128.835,93.344 128.836,89.876 C128.836,89.633 128.82,89.391 128.808,89.149 L128.81,89.147 Z" id="Shape" fill="#2C717C"></path>
                <polygon id="Shape" fill="#2C717C" points="102.717 104.781 3.89415397 48.3957683 0.087 45.185 76.916 0.979 179.546 60.576"></polygon>
                <polygon id="Shape" fill="#194C54" points="124.59 92.196 179.546 60.576 76.916 0.979 21.961 32.599"></polygon>
                <polygon id="Shape" fill="#6FCBD8" points="76.945 9.986 15.853 45.217 102.735 95.668 163.929 60.576"></polygon>
                <polygon id="Shape" fill="#1D5E6D" points="0.087 45.185 0.087 66.251 102.717 125.847 102.717 104.781"></polygon>
                <polygon id="Shape" fill="#1D5E6D" points="21.946 61.995 21.946 83.061 56.665 103.12 56.665 82.054"></polygon>
                <polygon id="Shape" fill="#296B72" points="102.717 104.781 102.717 125.847 179.546 81.642 179.546 60.576"></polygon>
                <polygon id="Shape" fill="#2C717C" points="21.946 61.995 21.946 57.878 63.598 82.065 56.665 82.065"></polygon>
                <rect id="Rectangle-path" fill="#296B72" x="56.665" y="82.065" width="6.933" height="21.055"></rect>
                <polygon id="Shape" fill="#113A44" points="124.59 92.196 124.59 113.212 179.546 81.642 179.546 60.576"></polygon>
                <path d="M11.679,64.298 C10.837,67.441 8.539,68.374 6.546,66.381 C4.553,64.388 3.621,60.225 4.463,57.082 C5.305,53.939 7.603,53.006 9.596,54.999 C11.589,56.991 12.521,61.155 11.679,64.298 Z" id="Shape" fill="#B23B4A"></path>
                <path d="M10.503,64.005 C9.762,66.769 7.741,67.59 5.988,65.837 C4.235,64.084 3.415,60.423 4.156,57.658 C4.897,54.894 6.918,54.073 8.671,55.826 C10.424,57.579 11.244,61.24 10.503,64.005 Z" id="Shape" fill="#EF4152"></path>
            </g>
            <polygon id="Shape" fill="#4A96A3" fill-rule="nonzero" points="148.513 324.082 148.513 414.19 204.513 446.557 204.513 356.328"></polygon>
            <g id="Group" transform="translate(0.000000, 354.000000)" fill-rule="nonzero">
                <path d="M204.513,23.013 L204.513,2.361 L204.513,2.328 L201.808,0.77 L201.808,0.77 L5.276,114.238 C0.366,117.072 -1.331,123.409 1.503,128.318 C2.443,129.946 3.751,131.225 5.281,132.099 L63.847,165.851 L204.513,84.559 L204.513,23.013 L204.513,23.013 Z" id="Shape" fill="#494D5B"></path>
                <path d="M204.513,68.789 L65.426,149.091 C60.516,151.925 58.819,158.261 61.653,163.171 L61.653,163.171 C64.488,168.081 70.824,169.778 75.733,166.944 L204.513,92.593 L204.513,68.789 L204.513,68.789 Z" id="Shape" fill="#2A2D35"></path>
                <path d="M204.513,76.013 L69.254,154.049 C67.098,155.294 66.303,158.076 67.548,160.232 C68.793,162.388 71.649,163.134 73.805,161.889 L204.513,86.466 L204.513,76.013 L204.513,76.013 Z" id="Shape" fill="#676B77"></path>
                <path d="M204.513,76.013 L69.261,154.043 C67.657,154.969 67.049,157.038 67.975,158.642 C68.901,160.246 71.052,160.8 72.655,159.874 L204.513,83.788 L204.513,76.013 Z" id="Shape" fill="#6FCBD8"></path>
                <polygon id="Shape" fill="#5A5F6B" points="25.248 102.707 85.499 137.502 85.499 144.675 86.997 143.812 86.997 136.638 26.746 101.843"></polygon>
                <polygon id="Shape" fill="#5A5F6B" points="71.225 76.2 131.475 110.995 131.475 118.168 132.973 117.305 132.973 110.131 72.722 75.335"></polygon>
                <polygon id="Shape" fill="#5A5F6B" points="117.416 49.57 177.667 84.365 177.667 91.538 179.165 90.675 179.165 83.5 118.914 48.705"></polygon>
                <polygon id="Shape" fill="#5A5F6B" points="204.513 45.086 164.773 22.136 163.275 23 204.513 46.815"></polygon>
            </g>
            <polyline id="Shape" fill="url(#linearGradient-15)" fill-rule="nonzero" points="148.513 324.082 204.513 356.328 204.513 446.593 148.513 478.925 148.513 324.082"></polyline>
            <path d="M762.669,257.481 C762.061,257.658 761.455,257.95 760.86,258.319 L760.846,258.314 C760.848,258.185 760.86,258.054 760.86,257.925 C760.86,248.997 755.432,244.893 748.736,248.759 C747.493,249.477 746.294,250.42 745.165,251.536 C742.392,245.503 736.543,243.602 729.754,247.522 C720.446,252.896 712.888,267.162 712.644,279.636 C712.543,279.69 712.444,279.731 712.342,279.79 C706.878,282.945 702.448,291.408 702.448,298.694 C702.448,305.942 706.834,309.288 712.26,306.215 L712.263,306.218 L761.105,278.019 L761.109,278.013 C764.545,276.031 767.635,271.064 768.385,265.971 C769.248,260.113 766.689,256.311 762.669,257.481 Z" id="Shape" fill="#FFFFFF" fill-rule="nonzero" opacity="0.6"></path>
            <path d="M537.49,207.042 C537.095,207.157 536.703,207.346 536.317,207.586 L536.308,207.583 C536.309,207.499 536.317,207.414 536.317,207.331 C536.317,201.54 532.796,198.879 528.453,201.386 C527.647,201.852 526.869,202.464 526.137,203.187 C524.338,199.274 520.545,198.041 516.141,200.583 C510.104,204.069 505.202,213.322 505.043,221.412 C504.977,221.447 504.913,221.474 504.847,221.512 C501.303,223.558 498.43,229.048 498.43,233.773 C498.43,238.474 501.275,240.645 504.794,238.651 L504.796,238.653 L536.475,220.363 L536.477,220.359 C538.705,219.074 540.709,215.852 541.196,212.549 C541.757,208.748 540.097,206.283 537.49,207.042 Z" id="Shape" fill="#FFFFFF" fill-rule="nonzero"></path>
            <path d="M583.57,275.849 C582.879,276.05 582.191,276.381 581.515,276.801 L581.499,276.796 C581.502,276.649 581.515,276.5 581.515,276.355 C581.515,266.213 575.349,261.552 567.743,265.943 C566.331,266.758 564.969,267.83 563.687,269.097 C560.537,262.244 553.893,260.085 546.181,264.537 C535.608,270.642 527.023,286.847 526.745,301.016 C526.63,301.078 526.518,301.124 526.402,301.191 C520.195,304.774 515.164,314.388 515.164,322.664 C515.164,330.898 520.146,334.698 526.309,331.208 L526.313,331.212 L581.793,299.18 L581.797,299.173 C585.7,296.922 589.209,291.28 590.062,285.494 C591.044,278.838 588.137,274.52 583.57,275.849 Z" id="Shape" fill="#FFFFFF" fill-rule="nonzero" opacity="0.8"></path>
            <path d="M702.381,172.018 C701.773,172.195 701.167,172.487 700.572,172.856 L700.558,172.851 C700.56,172.722 700.572,172.591 700.572,172.462 C700.572,163.534 695.144,159.43 688.448,163.296 C687.205,164.014 686.006,164.957 684.877,166.073 C682.104,160.04 676.255,158.139 669.466,162.059 C660.158,167.433 652.6,181.699 652.356,194.173 C652.255,194.227 652.156,194.268 652.054,194.327 C646.59,197.482 642.16,205.945 642.16,213.231 C642.16,220.479 646.546,223.825 651.972,220.752 L651.975,220.755 L700.817,192.556 L700.821,192.55 C704.257,190.568 707.347,185.601 708.097,180.508 C708.96,174.649 706.401,170.848 702.381,172.018 Z" id="Shape" fill="#FFFFFF" fill-rule="nonzero"></path>
            <path d="M674.673,310.851 C674.345,310.947 674.018,311.104 673.696,311.303 L673.688,311.3 C673.689,311.23 673.696,311.16 673.696,311.09 C673.696,306.27 670.765,304.054 667.15,306.141 C666.479,306.528 665.832,307.038 665.222,307.64 C663.725,304.383 660.567,303.357 656.902,305.473 C651.877,308.374 647.796,316.077 647.664,322.811 C647.609,322.84 647.556,322.862 647.501,322.894 C644.551,324.597 642.16,329.167 642.16,333.1 C642.16,337.013 644.528,338.82 647.457,337.161 L647.459,337.163 L673.828,321.939 L673.83,321.936 C675.685,320.866 677.353,318.184 677.758,315.435 C678.225,312.272 676.843,310.219 674.673,310.851 Z" id="Shape" fill="#FFFFFF" fill-rule="nonzero"></path>
            <path d="M272.7,166.7 C272.4,166.2 272.8,165.4 273.5,165 C274,164.7 274.1,164.2 273.6,164 L255.3,153.4 C254.8,153.1 254,153.2 253.5,153.5 C252.8,153.9 251.4,154.1 250.6,153.9 C248.6,153.5 246.2,153.8 244.5,154.8 L208.8,175.4 C207.1,176.4 206.5,177.8 207.2,178.9 C207.5,179.4 207.1,180.2 206.4,180.6 C205.9,180.9 205.8,181.4 206.3,181.6 L224.6,192.2 C225.1,192.5 225.9,192.4 226.4,192.1 C227.1,191.7 228.5,191.5 229.3,191.7 C231.3,192.1 233.7,191.8 235.4,190.8 L271.1,170.2 C272.8,169.3 273.4,167.9 272.7,166.7 Z M235.8,161.8 L264.7,172 L243.3,184.4 L214.4,174.2 L235.8,161.8 Z" id="Shape" fill="#2C717C" fill-rule="nonzero"></path>
            <g id="Vrstva_18" transform="translate(329.000000, 0.000000)" fill-rule="nonzero">
                <polygon id="Shape" fill="url(#linearGradient-16)" points="212.5 151.2 121.8 203.6 99.4 191.2 190 138.8"></polygon>
                <g id="Group" transform="translate(22.000000, 86.000000)">
                    <polygon id="Shape" fill="#2C717C" points="170.6 44.6 77.6 99.3 0.2 53.6 93.3 0"></polygon>
                    <polygon id="Shape" fill="#1D5E6D" points="0.3 53.6 2.8 62 77.5 105.2 77.5 98.3"></polygon>
                    <polygon id="Shape" fill="#134856" points="170.5 44.6 77.5 98.3 77.5 105.2 168.1 53"></polygon>
                    <path d="M81,100.2 C81.2,101 81.8,101.2 82.2,100.7 C82.7,100.2 82.9,99.2 82.7,98.5 C82.5,97.8 81.9,97.5 81.5,98 C81,98.5 80.8,99.5 81,100.2 Z" id="Shape" fill="#0A2B33"></path>
                    <path d="M81.4,99.8 C81.5,100.2 81.8,100.3 82,100.1 C82.3,99.8 82.4,99.3 82.3,98.9 C82.2,98.5 81.9,98.4 81.7,98.6 C81.5,98.8 81.3,99.4 81.4,99.8 Z" id="Shape" fill="#2EBC19"></path>
                </g>
                <polygon id="Shape" fill="#194C54" points="133.7 96.6 40.8 150.3 26 141.7 119 88.1"></polygon>
                <polygon id="Shape" fill="#2C717C" points="112.5 84.3 93.7 0.4 0.8 54 19.5 137.9 24.8 148 21.7 136.7"></polygon>
                <polygon id="Shape" fill="#1D5E6D" points="96.6 2 3.6 55.7 22.4 139.6 115.3 86"></polygon>
                <polygon id="Shape" fill="#6FCBD8" points="111.2 84.2 94.1 7.7 7.8 57.6 24.9 134"></polygon>
                <g id="Group" transform="translate(33.000000, 40.000000)" fill="#2C717C">
                    <path d="M2.2,69.8 C1.8,70 1.5,70 1.2,69.9 C0.6,69.5 0.6,68.3 1.1,67.2 L18.1,32.7 C18.6,31.6 19.6,31 20.2,31.4 C20.8,31.8 20.8,33 20.3,34.1 L3.3,68.6 C3,69.1 2.6,69.6 2.2,69.8" id="Shape"></path>
                    <path d="M32.5,45.3 C32.1,45.5 31.7,45.5 31.5,45.3 L18.3,35.3 C17.7,34.9 17.7,33.6 18.3,32.5 C18.9,31.4 19.8,30.9 20.4,31.3 L33.6,41.3 C34.2,41.7 34.2,43 33.6,44.1 C33.2,44.7 32.9,45.1 32.5,45.3" id="Shape"></path>
                    <path d="M32.5,45.3 C32.1,45.5 31.7,45.5 31.5,45.3 C30.9,44.9 30.9,43.6 31.5,42.5 L52.6,2.1 C53.2,1 54.1,0.5 54.7,0.9 C55.3,1.3 55.3,2.6 54.7,3.7 L33.6,44.1 C33.2,44.7 32.9,45.1 32.5,45.3" id="Shape"></path>
                </g>
                <polygon id="Shape" fill="#3E858C" points="3.6 55.7 0.8 54 93.7 0.4 96.6 2"></polygon>
                <polyline id="Shape" fill="#113A44" points="28.3 150.1 26 141.7 40.8 150.3 42 158"></polyline>
                <polygon id="Shape" fill="#113A44" points="148.2 114.5 71 159.1 41.2 142 118.5 97.4"></polygon>
                <polygon id="Shape" fill="#113A44" points="145 143.2 121.2 157.1 102.9 146.5 126.7 132.7"></polygon>
            </g>
            <g id="Vrstva_33" transform="translate(185.000000, 164.000000)" fill-rule="nonzero" fill="url(#linearGradient-17)">
                <polygon id="Shape" points="0.038 12.951 71.885 54.668 132.929 19.544 99.822 0.319"></polygon>
            </g>
            <g id="Vrstva_27" transform="translate(520.000000, 376.000000)" fill-rule="nonzero">
                <g id="Group">
                    <polyline id="Shape" fill="#8FDFE5" points="39.488 113.274 32.135 117.523 32.135 107.891 39.488 103.657 39.488 113.274"></polyline>
                    <polygon id="Shape" fill="#8FDFE5" points="7.512 85.436 39.445 103.716 39.445 19.034 7.512 0.845"></polygon>
                    <path d="M13.469,63.169 C13.146,64.375 12.265,64.732 11.5,63.968 C10.736,63.204 10.378,61.607 10.701,60.401 C11.024,59.195 11.905,58.838 12.67,59.602 C13.434,60.367 13.792,61.964 13.469,63.169 Z" id="Shape" fill="#76C2C4"></path>
                    <polygon id="Shape" fill="#E3FFFF" points="17.387 64.656 10.602 60.78 9.034 61.676 15.828 65.554"></polygon>
                    <polygon id="Shape" fill="#E3FFFF" points="39.488 103.657 7.446 85.365 0.093 89.599 32.135 107.891"></polygon>
                    <polygon id="Shape" fill="#C4F0F2" points="32.135 117.523 0.093 99.232 0.093 89.599 32.135 107.891"></polygon>
                </g>
            </g>
            <g id="Vrstva_28" transform="translate(440.000000, 321.000000)" fill-rule="nonzero">
                <g id="Group" transform="translate(40.000000, 33.000000)">
                    <polygon id="Shape" fill="#8FDFE5" points="8.244 58.727 40.177 77.007 40.177 18.372 8.244 0.183"></polygon>
                    <polyline id="Shape" fill="#8FDFE5" points="40.177 78.266 32.824 82.516 32.824 81.288 40.177 77.054 40.177 78.266"></polyline>
                    <polygon id="Shape" fill="#E3FFFF" points="40.177 77.054 8.135 58.762 0.782 62.996 32.824 81.288"></polygon>
                    <polygon id="Shape" fill="#B7E5E5" points="32.824 82.516 0.782 64.224 0.782 62.996 32.824 81.288"></polygon>
                </g>
                <g id="Group" transform="translate(119.000000, 79.000000)">
                    <polygon id="Shape" fill="#8FDFE5" points="8.192 58.545 40.125 76.825 40.125 18.19 8.192 0"></polygon>
                    <polyline id="Shape" fill="#8FDFE5" points="40.125 78.084 32.771 82.334 32.771 81.106 40.125 76.872 40.125 78.084"></polyline>
                    <polygon id="Shape" fill="#E3FFFF" points="40.125 76.872 8.083 58.581 0.73 62.815 32.771 81.106"></polygon>
                    <polygon id="Shape" fill="#B7E5E5" points="32.771 82.334 0.73 64.042 0.73 62.815 32.771 81.106"></polygon>
                </g>
                <polygon id="Shape" fill="url(#linearGradient-18)" points="40.667 81.314 40.782 122.643 167.221 196.068 167.228 73.355"></polygon>
                <polygon id="Shape" fill="#D7F9F9" points="167.228 73.319 40.782 0.073 0.738 44.283 118.184 127.529"></polygon>
                <polygon id="Shape" fill="#FFFFFF" points="0.594 58.101 127.04 131.347 127.184 117.529 0.738 44.283"></polygon>
                <polygon id="Shape" fill="#8CD5DD" points="53.63 7.63 40.626 0.042 0.582 44.252 13.585 51.84"></polygon>
                <polygon id="Shape" fill="#71C5C9" points="0.582 58.154 13.585 65.741 13.585 51.84 0.582 44.252"></polygon>
                <polyline id="Shape" fill="#8CD5DD" points="26.336 59.136 39.34 66.723 79.384 22.513 66.381 14.925"></polyline>
                <polyline id="Shape" fill="#71C5C9" points="26.336 73.037 39.34 80.625 39.34 66.723 26.336 59.136"></polyline>
                <polygon id="Shape" fill="#8CD5DD" points="105.187 37.518 92.184 29.93 52.139 74.141 65.143 81.728"></polygon>
                <polygon id="Shape" fill="#71C5C9" points="52.139 88.042 65.143 95.63 65.143 81.728 52.139 74.141"></polygon>
                <polyline id="Shape" fill="#8CD5DD" points="77.737 88.899 90.741 96.487 130.786 52.277 117.782 44.689"></polyline>
                <polyline id="Shape" fill="#71C5C9" points="77.737 102.801 90.741 110.389 90.741 96.487 77.737 88.899"></polyline>
                <polygon id="Shape" fill="#8CD5DD" points="156.43 67.112 143.426 59.524 103.382 103.734 116.385 111.322"></polygon>
                <polygon id="Shape" fill="#71C5C9" points="103.382 117.636 116.385 125.224 116.385 111.322 103.382 103.734"></polygon>
                <path d="M7.098,68.818 C3.499,66.74 0.582,62.138 0.582,58.539 C0.582,54.94 3.5,53.707 7.098,55.785 C10.697,57.863 13.615,62.465 13.615,66.064 C13.615,69.662 10.697,70.895 7.098,68.818 Z" id="Shape" fill="#71C5C9"></path>
                <path d="M32.838,83.743 C29.239,81.665 26.321,77.063 26.321,73.464 C26.321,69.865 29.239,68.632 32.838,70.71 C36.437,72.788 39.355,77.39 39.355,80.989 C39.355,84.587 36.437,85.821 32.838,83.743 Z" id="Shape" fill="#71C5C9"></path>
                <path d="M19.975,76.241 C16.462,74.213 13.614,69.721 13.614,66.208 C13.614,62.695 16.462,61.491 19.975,63.52 C23.488,65.548 26.336,70.04 26.336,73.553 C26.336,77.065 23.488,78.269 19.975,76.241 Z" id="Shape" fill="#FFFFFF"></path>
                <path d="M45.707,91.185 C42.154,89.134 39.274,84.591 39.274,81.038 C39.274,77.485 42.154,76.268 45.707,78.319 C49.26,80.37 52.14,84.913 52.14,88.466 C52.14,92.019 49.26,93.236 45.707,91.185 Z" id="Shape" fill="#FFFFFF"></path>
                <path d="M58.656,98.65 C55.057,96.572 52.139,91.97 52.139,88.371 C52.139,84.772 55.057,83.539 58.656,85.617 C62.255,87.695 65.173,92.297 65.173,95.896 C65.172,99.495 62.255,100.728 58.656,98.65 Z" id="Shape" fill="#71C5C9"></path>
                <path d="M84.239,113.47 C80.64,111.392 77.722,106.79 77.722,103.191 C77.722,99.592 80.64,98.359 84.239,100.437 C87.838,102.515 90.755,107.117 90.755,110.716 C90.756,114.315 87.838,115.548 84.239,113.47 Z" id="Shape" fill="#71C5C9"></path>
                <path d="M71.451,106.12 C67.967,104.109 65.143,99.654 65.143,96.17 C65.143,92.686 67.967,91.492 71.451,93.504 C74.935,95.516 77.759,99.97 77.759,103.454 C77.759,106.938 74.935,108.132 71.451,106.12 Z" id="Shape" fill="#FFFFFF"></path>
                <path d="M97.064,120.874 C93.58,118.863 90.756,114.408 90.756,110.924 C90.756,107.44 93.58,106.247 97.064,108.258 C100.548,110.269 103.372,114.724 103.372,118.208 C103.372,121.692 100.548,122.885 97.064,120.874 Z" id="Shape" fill="#FFFFFF"></path>
                <path d="M109.889,128.243 C106.29,126.165 103.373,121.563 103.373,117.964 C103.373,114.365 106.291,113.132 109.889,115.21 C113.488,117.288 116.406,121.89 116.406,125.489 C116.405,129.088 113.488,130.321 109.889,128.243 Z" id="Shape" fill="#71C5C9"></path>
                <path d="M127.059,133.657 C127.092,133.435 127.115,133.205 127.115,132.955 C127.115,132.764 127.135,132.961 127.115,132.764 L127.085,126.98 L124.681,127.061 L124.681,127.07 C123.84,126.035 122.839,125.132 121.76,124.509 C121.669,124.457 121.581,124.415 121.491,124.367 L121.491,121.727 L116.405,121.727 L116.405,127.027 L116.429,127.027 C116.558,129.944 118.885,133.558 121.76,135.218 C124.455,136.774 126.68,136.064 127.054,133.688 L127.059,133.688 L127.059,133.657 Z" id="Shape" fill="#FFFFFF"></path>
            </g>
            <g id="Vrstva_31" transform="translate(162.000000, 404.000000)" fill-rule="nonzero">
                <polygon id="Shape" fill="#B3E2E2" points="61.83 7.478 11.698 56.732 0.572 29.843 50.8 0.844"></polygon>
                <polyline id="Shape" fill="url(#linearGradient-19)" points="0.624 84.914 30.857 102.293 81.085 73.294 50.852 55.915"></polyline>
            </g>
            <g id="Vrstva_32" transform="translate(122.000000, 411.000000)" fill-rule="nonzero">
                <polygon id="Shape" fill="#C4F0F2" points="40.572 22.843 40.624 77.914 70.857 95.293 70.857 79.078 71.602 41.477"></polygon>
                <polygon id="Shape" fill="#6FCBD8" points="121.085 66.294 121.085 50.079 70.857 79.078 70.857 95.293"></polygon>
                <polygon id="Shape" fill="#7DD4DB" points="101.83 0.488 121.085 50.079 70.857 79.078 51.602 29.487"></polygon>
                <polygon id="Shape" fill="#1D5E6D" points="116.736 48.548 100.045 5.56 55.951 31.017 72.642 74.005"></polygon>
                <polygon id="Shape" fill="#FFFFFF" points="67.659 50.649 69.679 55.98 90.839 43.81 88.819 38.479"></polygon>
                <polygon id="Shape" fill="#FFFFFF" points="70.722 58.749 72.742 64.08 93.901 51.91 91.882 46.579"></polygon>
                <polygon id="Shape" fill="#FFFFFF" points="62.602 37.521 65.183 44.242 102.021 22.957 99.441 16.235"></polygon>
                <polygon id="Shape" fill="#FFFFFF" points="97.044 50.351 109.54 43.317 104.487 29.355 91.992 36.39"></polygon>
                <path d="M0.466,82.963 L20.511,94.541 L21.014,93.677 L20.496,94.532 C20.578,94.573 25.314,97.466 31.421,97.478 C34.12,97.479 37.096,96.895 39.981,95.213 L39.981,95.213 L55.251,86.322 L53.243,85.167 L38.974,93.485 L38.974,93.485 C36.433,94.964 33.839,95.477 31.421,95.478 C28.691,95.479 26.199,94.812 24.398,94.14 C23.498,93.805 22.771,93.469 22.275,93.22 C22.027,93.095 21.836,92.993 21.71,92.923 L21.57,92.844 L21.538,92.825 L21.532,92.822 L21.52,92.815 L2.545,81.763 L0.466,82.963 L0.466,82.963 Z" id="Shape" fill="#6FCBD8"></path>
                <ellipse id="Oval" fill="#6FCBD8" transform="translate(54.238128, 85.684739) rotate(27.433763) translate(-54.238128, -85.684739) " cx="54.2381282" cy="85.6847394" rx="1.15794253" ry="1"></ellipse>
            </g>
            <g id="Vrstva_30" transform="translate(233.000000, 412.000000)" fill-rule="nonzero">
                <g id="Group">
                    <ellipse id="Oval" fill="#2A2D35" transform="translate(13.176821, 89.907408) rotate(112.564329) translate(-13.176821, -89.907408) " cx="13.1768214" cy="89.9074077" rx="3.48681388" ry="7.99157342"></ellipse>
                    <ellipse id="Oval" fill="#2A2D35" transform="translate(26.895585, 86.705885) rotate(122.889114) translate(-26.895585, -86.705885) " cx="26.8955853" cy="86.7058848" rx="2.97291838" ry="6.81281295"></ellipse>
                    <ellipse id="Oval" fill="#5E0E20" transform="translate(16.821090, 5.575444) rotate(6.903299) translate(-16.821090, -5.575444) " cx="16.8210904" cy="5.5754442" rx="8.50242458" ry="2.59012934"></ellipse>
                    <ellipse id="Oval" fill="#FF9FA6" transform="translate(19.067015, 9.259163) rotate(11.045878) translate(-19.067015, -9.259163) " cx="19.0670154" cy="9.2591626" rx="6.48417121" ry="7.9002086"></ellipse>
                    <path d="M25.087,70.959 L22.515,70.869 C21.025,70.817 19.852,69.675 19.91,68.331 L20.709,49.744 C20.767,48.4 22.033,47.343 23.524,47.395 L26.096,47.485 C27.586,47.537 28.759,48.679 28.701,50.024 L27.902,68.611 C27.845,69.954 26.578,71.011 25.087,70.959 Z" id="Shape" fill="#1D5E6D"></path>
                    <path d="M13.82,73.652 L11.269,73.346 C9.79,73.169 8.741,71.933 8.938,70.6 L11.653,52.161 C11.849,50.828 13.22,49.882 14.698,50.059 L17.249,50.365 C18.728,50.542 19.777,51.778 19.58,53.111 L16.865,71.55 C16.669,72.883 15.298,73.829 13.82,73.652 Z" id="Shape" fill="#1D5E6D"></path>
                    <path d="M15.079,56.523 L15.079,56.523 C12.531,56.732 10.274,54.819 10.065,52.271 L8.002,27.17 C7.792,24.622 9.706,22.365 12.254,22.156 L12.254,22.156 C14.802,21.947 17.059,23.86 17.268,26.408 L19.331,51.509 C19.541,54.057 17.627,56.314 15.079,56.523 Z" id="Shape" fill="#FFFFFF"></path>
                    <path d="M24.092,51.664 L24.092,51.664 C21.546,51.427 19.657,49.15 19.894,46.604 L22.227,21.527 C22.464,18.981 24.741,17.092 27.287,17.329 L27.287,17.329 C29.833,17.566 31.722,19.843 31.485,22.389 L29.152,47.466 C28.915,50.012 26.638,51.901 24.092,51.664 Z" id="Shape" fill="#FFFFFF"></path>
                    <path d="M18.837,23.984 L18.837,23.984 C17.57,23.984 16.533,22.947 16.533,21.68 L16.533,15.879 C16.533,14.612 17.57,13.575 18.837,13.575 L18.837,13.575 C20.104,13.575 21.141,14.612 21.141,15.879 L21.141,21.68 C21.141,22.947 20.104,23.984 18.837,23.984 Z" id="Shape" fill="#FF9FA6"></path>
                    <polygon id="Shape" fill="#FFFFFF" points="10.972 22.449 25.861 17.419 26.893 51.028 16.504 56.172"></polygon>
                    <path d="M7.837,48.714 L7.837,48.714 C6.373,48.428 5.409,46.997 5.695,45.533 L9.069,28.252 C9.355,26.788 10.786,25.824 12.25,26.11 L12.25,26.11 C13.714,26.396 14.678,27.827 14.392,29.291 L11.018,46.572 C10.733,48.036 9.301,49 7.837,48.714 Z" id="Shape" fill="#FF9FA7"></path>
                    <path d="M29.698,89.841 L29.698,89.841 C28.244,90.141 26.782,89.315 26.449,88.004 L20.192,69.508 C19.859,68.197 22.425,67.244 23.879,66.943 L23.879,66.943 C25.333,66.643 27.57,67.299 27.903,68.61 L31.736,86.911 C32.069,88.222 31.152,89.541 29.698,89.841 Z" id="Shape" fill="#1D5E6D"></path>
                    <path d="M1.599,63.294 L1.465,63.24 C0.506,62.854 0.038,61.753 0.424,60.794 L5.747,45.817 C6.133,44.858 7.75,44.876 8.708,45.262 L8.842,45.316 C9.801,45.702 11.296,46.171 10.91,47.129 L4.045,62.253 C3.658,63.212 2.558,63.681 1.599,63.294 Z" id="Shape" fill="#FF9FA7"></path>
                    <path d="M17.68,92.753 L17.68,92.753 C16.226,93.053 14.764,92.227 14.431,90.916 L9.099,71.806 C8.766,70.495 10.407,70.156 11.86,69.856 L11.86,69.856 C13.314,69.556 16.49,70.443 16.823,71.754 L19.717,89.823 C20.051,91.133 19.134,92.452 17.68,92.753 Z" id="Shape" fill="#1D5E6D"></path>
                    <path d="M14.947,21.525 C19.462,21.903 23.271,20.435 23.454,18.246 C23.455,18.239 23.455,18.198 23.454,18.211 L13.964,21.412 C14.287,21.457 14.614,21.497 14.947,21.525 Z" id="Shape" fill="#FF9FA6"></path>
                    <path d="M12.615,23.73 C10.134,23.246 7.708,24.879 7.223,27.36 L6.103,33.949 L15.114,35.735 L16.245,29.121 C16.73,26.641 15.096,24.215 12.615,23.73 Z" id="Shape" fill="#E8E8E8"></path>
                    <ellipse id="Oval" fill="#FFBBC3" transform="translate(16.658877, 9.582114) rotate(11.045878) translate(-16.658877, -9.582114) " cx="16.6588766" cy="9.5821143" rx="1.14803031" ry="1.89705009"></ellipse>
                    <path d="M17.278,7.487 C17.278,7.487 18.182,7.971 18.182,8.875 C18.182,9.779 17.278,12.685 17.73,14.17 C18.182,15.655 21.252,16.407 21.252,16.407 C21.252,16.407 23.673,15.676 25.076,11.71 C26.479,7.745 25.51,5.775 25.51,5.775 L17.278,7.487 Z" id="Shape" fill="#66383F"></path>
                    <path d="M26.169,9.225 C26.409,5.082 23.831,1.477 20.196,1.037 C16.638,0.606 13.335,3.358 12.488,7.3 C15.26,8.156 20.42,9.425 26.169,9.225 Z" id="Shape" fill="#A02B31"></path>
                </g>
            </g>
            <g id="Vrstva_34" transform="translate(399.000000, 339.000000)" fill-rule="nonzero">
                <g id="Group" transform="translate(332.000000, 128.000000)" fill="#2D3138">
                    <ellipse id="Oval" cx="7.458" cy="18.315" rx="6.795" ry="2.844"></ellipse>
                    <ellipse id="Oval" cx="7.458" cy="2.934" rx="6.795" ry="2.844"></ellipse>
                    <rect id="Rectangle-path" x="0.663" y="3.796" width="13.589" height="14.519"></rect>
                </g>
                <path d="M357.5,107.751 L357.507,107.751 L339.457,69.815 L321.407,107.751 L321.414,107.751 C319.748,110.731 318.79,114.159 318.79,117.815 C318.79,129.229 328.043,138.482 339.457,138.482 C350.871,138.482 360.124,129.229 360.124,117.815 C360.125,114.159 359.166,110.73 357.5,107.751 Z" id="Shape" fill="#194C54"></path>
                <path d="M357.507,107.751 L341.172,73.419 L327.34,107.751 L327.346,107.751 C325.935,110.731 325.124,114.159 325.124,117.815 C325.124,128.65 332.188,137.521 341.172,138.395 C351.782,137.521 360.124,128.65 360.124,117.815 C360.124,114.159 359.166,110.73 357.5,107.751 L357.507,107.751 Z" id="Shape" fill="#1D5E6D"></path>
                <g id="Group" transform="translate(12.000000, 52.000000)" fill="#2D3138">
                    <ellipse id="Oval" cx="6.508" cy="16.472" rx="6.053" ry="2.534"></ellipse>
                    <ellipse id="Oval" cx="6.508" cy="2.771" rx="6.053" ry="2.534"></ellipse>
                    <rect id="Rectangle-path" x="0.456" y="3.539" width="12.106" height="12.933"></rect>
                </g>
                <path d="M34.581,34.119 L34.587,34.119 L18.508,0.325 L2.429,34.119 L2.435,34.119 C0.951,36.773 0.097,39.828 0.097,43.085 C0.097,53.253 8.34,61.495 18.507,61.495 C28.674,61.495 36.917,53.252 36.917,43.085 C36.919,39.827 36.065,36.773 34.581,34.119 Z" id="Shape" fill="#194C54"></path>
                <path d="M34.588,34.119 L20.036,3.536 L7.714,34.119 L7.719,34.119 C6.462,36.773 5.74,39.828 5.74,43.085 C5.74,52.737 12.033,60.64 20.036,61.418 C29.487,60.64 36.919,52.737 36.919,43.085 C36.919,39.828 36.065,36.774 34.581,34.119 L34.588,34.119 Z" id="Shape" fill="#1D5E6D"></path>
            </g>
            <g id="Vrstva_36" transform="translate(122.000000, 354.000000)">
                <path d="M28.421,17.742 C27.206,18.443 25.369,18.52 24.317,17.912 C23.844,17.639 23.611,17.275 23.607,16.893 C23.602,16.424 23.943,15.929 24.612,15.543 C25.827,14.842 27.664,14.766 28.716,15.373 C29.768,15.98 29.636,17.04 28.421,17.742 Z" id="Shape" fill="#3D9959" fill-rule="nonzero"></path>
                <g id="Group">
                    <path d="M33.943,71.838 C25.621,76.643 13.031,77.165 5.824,73.004 C-1.383,68.843 -0.48,61.574 7.843,56.769 C16.165,51.964 28.755,51.442 35.962,55.603 C43.169,59.764 42.266,67.033 33.943,71.838 Z" id="Shape" fill="#E8E8E8" fill-rule="nonzero"></path>
                    <polygon id="Shape" fill="#E8E8E8" fill-rule="nonzero" points="0.958 29.762 0.958 66.099 40.828 62.661 40.828 25.826"></polygon>
                    <polygon id="Shape" fill="#B3E2E2" fill-rule="nonzero" points="2.354 43.46 2.354 65.418 39.431 62.221 39.431 39.799"></polygon>
                    <path d="M33.029,70.755 C25.29,75.223 13.582,75.709 6.879,71.839 C0.176,67.969 1.017,61.21 8.756,56.741 C16.495,52.273 28.203,51.787 34.906,55.657 C41.609,59.527 40.768,66.287 33.029,70.755 Z" id="Shape" fill="#ABD8D4" fill-rule="nonzero"></path>
                    <path d="M33.029,48.636 C25.29,53.104 13.582,53.59 6.879,49.72 C0.176,45.85 1.017,39.091 8.756,34.622 C16.495,30.154 28.203,29.668 34.906,33.538 C41.609,37.409 40.768,44.168 33.029,48.636 Z" id="Shape" fill="#87C6C4" fill-rule="nonzero"></path>
                    <path d="M33.943,35.329 C25.621,40.134 13.031,40.656 5.824,36.495 C-1.383,32.334 -0.48,25.065 7.843,20.26 C16.166,15.455 28.755,14.933 35.962,19.094 C43.169,23.255 42.266,30.524 33.943,35.329 Z" id="Shape" fill="#FFFFFF" fill-rule="nonzero"></path>
                    <path d="M33.943,35.329 C34.615,34.941 35.22,34.533 35.795,34.116 C35.51,33.92 35.225,33.724 34.907,33.54 C28.204,29.67 16.497,30.156 8.757,34.624 C7.698,35.236 6.781,35.893 5.982,36.577 C13.213,40.643 25.679,40.1 33.943,35.329 Z" id="Shape" fill="#C5EDEC" fill-rule="nonzero"></path>
                    <path d="M26.15,20.372 C23.066,22.152 18.402,22.346 15.731,20.804 C13.06,19.262 13.395,16.569 16.479,14.789 C19.563,13.009 24.227,12.815 26.898,14.357 C29.568,15.898 29.233,18.592 26.15,20.372 Z" id="Shape" fill="#1D5E6D" fill-rule="nonzero"></path>
                    <polyline id="Shape" fill="#1D5E6D" fill-rule="nonzero" points="13.936 18.367 28.701 16.968 28.701 7.505 13.936 8.985"></polyline>
                    <path d="M26.15,11.141 C23.066,12.921 18.402,13.115 15.731,11.573 C14.531,10.88 13.938,9.955 13.928,8.985 C13.916,7.795 14.78,6.538 16.479,5.557 C19.563,3.777 24.227,3.583 26.898,5.125 C29.569,6.667 29.233,9.36 26.15,11.141 Z" id="Shape" fill="#2C717C" fill-rule="nonzero"></path>
                    <path d="M23.75,9.152 C22.199,10.047 19.853,10.145 18.51,9.369 C17.167,8.594 17.335,7.239 18.886,6.344 C20.437,5.449 22.783,5.351 24.126,6.127 C25.47,6.902 25.301,8.256 23.75,9.152 Z" id="Shape" fill="#1D5E6D" fill-rule="nonzero"></path>
                    <polyline id="Shape" fill="#1D5E6D" fill-rule="nonzero" points="17.607 8.143 25.033 7.44 25.033 2.68 17.607 3.425"></polyline>
                    <path d="M23.737,4.532 C22.187,5.427 19.842,5.524 18.499,4.749 C17.896,4.401 17.598,3.936 17.593,3.448 C17.587,2.85 18.021,2.218 18.875,1.725 C20.425,0.83 22.77,0.733 24.113,1.508 C25.456,2.283 25.287,3.636 23.737,4.532 Z" id="Shape" fill="#2C717C" fill-rule="nonzero"></path>
                    <path d="M18.49,8.114 C17.938,7.795 17.648,7.38 17.584,6.939 L10.324,11.142 L13.623,13.145 L21.239,8.634 C20.217,8.697 19.212,8.531 18.49,8.114 Z" id="Shape" fill="#19682C" fill-rule="nonzero"></path>
                    <path d="M18.49,5.82 C17.938,5.501 17.648,5.086 17.584,4.645 L10.324,8.848 L13.623,10.851 L21.239,6.34 C20.217,6.403 19.212,6.237 18.49,5.82 Z" id="Shape" fill="#3A8087" fill-rule="nonzero"></path>
                    <polygon id="Shape" fill="#296B72" fill-rule="nonzero" points="21.239 6.34 21.239 8.634 13.623 13.145 13.623 10.851"></polygon>
                    <polyline id="Shape" fill="#0B3A42" fill-rule="nonzero" points="10.324 11.142 10.324 8.848 13.623 10.851 13.623 13.145 10.324 11.142"></polyline>
                    <path d="M21.802,21.845 C21.802,21.845 23.276,56.269 17.431,66.327" id="Shape" stroke="#000000" opacity="0.1"></path>
                </g>
            </g>
            <g id="Vrstva_37" transform="translate(586.000000, 491.000000)" fill-rule="nonzero">
                <polygon id="Shape" fill="#6FCBD8" points="37.511 46.189 46.113 51.46 46.736 52.333 54.623 56.905 42.717 20.034 9.613 0.859 21.553 37.738 37.136 46.769"></polygon>
                <polygon id="Shape" fill="#FFFFFF" points="9.613 0.859 0.653 49.805 7.153 53.573 7.189 53.535 9.268 53.035 25.618 62.605 27.191 65.163 27.183 65.182 33.723 68.972 42.717 20.034"></polygon>
            </g>
            <g id="Vrstva_15" transform="translate(53.000000, 394.000000)" fill-rule="nonzero">
                <polygon id="Shape" fill="#BC742E" points="50.4 23.2 39.3 29.6 0.6 7.2 11.7 0.8"></polygon>
                <polygon id="Shape" fill="#DD9343" points="50.4 23.2 43.5 24.5 4.8 2.1 11.7 0.8"></polygon>
                <polygon id="Shape" fill="#EFB065" points="0.6 7.2 0.6 58.3 39.3 80.7 43.3 31.6"></polygon>
                <polygon id="Shape" fill="#FBC67B" points="45.5 22.4 39.3 29.6 0.6 7.2 6.8 0"></polygon>
                <polygon id="Shape" fill="#DD9343" points="50.4 23.2 39.3 29.6 39.3 80.7 50.4 74.3"></polygon>
            </g>
            <g id="Vrstva_16" transform="translate(56.000000, 413.000000)" fill-rule="nonzero">
                <path d="M23.2,46.9 C23.2,48.4 19.3,47.5 14.5,44.7 C9.7,41.9 5.8,38.4 5.8,36.9 C5.8,35.4 9.7,36.3 14.5,39.1 C19.3,41.9 23.2,45.4 23.2,46.9 Z" id="Shape" fill="#BC742E"></path>
                <g id="Group" transform="translate(1.000000, 10.000000)">
                    <path d="M19.8,15.8 C17.9,14.5 16.8,13.8 16.8,13.8 C16,13.3 15.3,12.9 14.5,12.4 C7,8 0.9,6.5 0.9,8.9 C0.9,8.9 0.9,9 0.9,9 C0.9,19 7,30.7 14.5,35.1 C22,39.5 28.1,34.8 28.1,24.8 C28.1,24.8 28.1,24.7 28.1,24.7 C28.1,22.8 24.7,19.3 19.8,15.8 Z" id="Shape" fill="#EF4152"></path>
                    <path d="M27.8,24.9 C27.8,27.3 21.8,25.7 14.5,21.5 C7.2,17.3 1.2,11.9 1.2,9.5 C1.2,7.1 7.2,8.7 14.5,12.9 C21.8,17.1 27.8,22.6 27.8,24.9 Z" id="Shape" fill="#FFFFFF"></path>
                    <path d="M11.2,15.8 L9.7,14.9 C9.7,14.3 9.4,13.7 8.9,13.4 C8.5,13.2 8.1,13.4 8.1,14 L6.6,13.1 C6.6,11.4 7.6,10.6 8.9,11.4 C10.1,12.2 11.2,14.1 11.2,15.8 Z" id="Shape" fill="#ED8F20"></path>
                    <path d="M17.3,20.4 L15.8,19.5 C15.8,18.9 15.5,18.3 15,18 C14.6,17.8 14.2,18 14.2,18.6 L12.7,17.7 C12.7,16 13.7,15.2 15,16 C16.3,16.7 17.3,18.7 17.3,20.4 Z" id="Shape" fill="#ED8F20"></path>
                    <path d="M22.7,3 C22.7,2.4 22.4,1.8 21.9,1.5 L20.4,0.6 C20,0.4 19.6,0.6 19.6,1.2 L16.8,13.7 L16.3,16 L16.3,16 C16.3,16 16.3,16 16.3,16 C16.3,16.3 17,16.9 17.9,17.4 C18.8,17.9 19.5,18.1 19.5,17.8 C19.5,17.8 19.5,17.8 19.5,17.8 L19.9,15.8 L22.7,3 Z" id="Shape" fill="#D2D5D7"></path>
                </g>
                <path d="M8.7,12 C8.5,11.3 8.2,10.6 7.8,9.9 C7.4,9.3 6.9,8.8 6.4,8.5 C6,8.3 5.7,8.2 5.4,8.2 C4.9,8.2 4.5,8.4 4.3,8.8 C4,9.2 3.9,9.8 3.9,10.5 C3.9,11 4,11.5 4.1,12 C4.3,12.7 4.6,13.4 5,14.1 C5.4,14.7 5.9,15.2 6.4,15.5 C6.8,15.7 7.1,15.8 7.4,15.8 C7.9,15.8 8.3,15.6 8.5,15.2 C8.8,14.8 8.9,14.2 8.9,13.5 C8.9,13 8.8,12.5 8.7,12 Z M7,12.8 C6.9,12.9 6.8,13.1 6.7,13.1 C6.6,13.1 6.4,13.1 6.3,13 C6.2,12.9 6.1,12.9 6,12.7 C5.9,12.5 5.7,12.3 5.7,12.1 C5.6,11.9 5.6,11.7 5.6,11.5 C5.6,11.4 5.6,11.2 5.7,11.1 C5.8,10.9 5.9,10.8 6,10.8 C6.1,10.8 6.3,10.8 6.4,10.9 C6.5,11 6.6,11 6.7,11.2 C6.8,11.4 7,11.6 7,11.8 C7.1,12 7.1,12.2 7.1,12.4 C7.1,12.6 7,12.7 7,12.8 Z" id="Shape" fill="#ED8F20"></path>
                <path d="M11.9,15.9 C11.7,15.3 11.5,14.8 11.2,14.3 C10.9,13.8 10.5,13.4 10.1,13.2 C9.8,13 9.5,13 9.3,13 C8.9,13 8.6,13.2 8.4,13.5 C8.2,13.8 8,14.3 8,14.8 C8,15.2 8.1,15.6 8.2,16 C8.4,16.6 8.6,17.1 8.9,17.6 C9.2,18.1 9.6,18.5 10,18.7 C10.3,18.9 10.6,18.9 10.8,18.9 C11.2,18.9 11.5,18.7 11.7,18.4 C11.9,18.1 12.1,17.6 12.1,17.1 C12,16.6 12,16.2 11.9,15.9 Z M10.6,16.5 C10.6,16.6 10.5,16.7 10.4,16.7 C10.3,16.7 10.2,16.7 10.1,16.6 C10,16.6 9.9,16.5 9.9,16.4 C9.8,16.3 9.7,16.1 9.6,15.9 C9.5,15.7 9.5,15.6 9.5,15.4 C9.5,15.3 9.5,15.2 9.5,15.1 C9.5,15 9.6,14.9 9.7,14.9 C9.8,14.9 9.9,14.9 10,15 C10.1,15 10.2,15.1 10.2,15.2 C10.3,15.3 10.4,15.5 10.5,15.7 C10.6,15.9 10.6,16 10.6,16.2 C10.6,16.3 10.6,16.4 10.6,16.5 Z" id="Shape" fill="#C4751E"></path>
                <path d="M15.3,5.6 C15.2,5.1 14.9,4.5 14.6,4.1 C14.3,3.6 13.9,3.3 13.5,3 C13.2,2.8 13,2.8 12.8,2.8 C12.5,2.8 12.2,3 12,3.2 C11.8,3.5 11.7,3.9 11.7,4.4 C11.7,4.8 11.8,5.1 11.9,5.5 C12,6 12.3,6.6 12.6,7 C12.9,7.5 13.3,7.8 13.7,8.1 C14,8.3 14.2,8.3 14.4,8.3 C14.7,8.3 15,8.1 15.2,7.9 C15.4,7.6 15.5,7.2 15.5,6.7 C15.4,6.4 15.4,6 15.3,5.6 Z M14,6.2 C14,6.3 13.9,6.4 13.8,6.4 C13.7,6.4 13.6,6.4 13.5,6.3 C13.4,6.3 13.3,6.2 13.3,6.1 C13.2,6 13.1,5.8 13,5.7 C12.9,5.5 12.9,5.4 12.9,5.2 C12.9,5.1 12.9,5 12.9,4.9 C12.9,4.8 13,4.7 13.1,4.7 C13.2,4.7 13.3,4.7 13.4,4.8 C13.5,4.8 13.6,4.9 13.6,5 C13.7,5.1 13.8,5.3 13.9,5.4 C14,5.6 14,5.7 14,5.9 C14.1,6 14.1,6.1 14,6.2 Z" id="Shape" fill="#ED8F20"></path>
                <path d="M3.2,2.7 C3.1,2.3 2.9,1.8 2.6,1.5 C2.4,1.1 2.1,0.8 1.7,0.7 C1.5,0.6 1.3,0.5 1.1,0.5 C0.8,0.5 0.6,0.6 0.4,0.8 C0.2,1 0.1,1.4 0.1,1.8 C0.1,2.1 0.1,2.4 0.2,2.7 C0.3,3.1 0.5,3.6 0.8,3.9 C1,4.3 1.3,4.6 1.7,4.7 C1.9,4.8 2.1,4.9 2.3,4.9 C2.6,4.9 2.8,4.8 3,4.6 C3.2,4.4 3.3,4 3.3,3.6 C3.4,3.2 3.3,2.9 3.2,2.7 Z M2.2,3.1 C2.2,3.2 2.1,3.2 2,3.3 C1.9,3.3 1.8,3.3 1.7,3.3 C1.6,3.3 1.6,3.2 1.5,3.2 C1.4,3.1 1.3,3 1.3,2.9 C1.3,2.8 1.2,2.6 1.2,2.5 C1.2,2.4 1.2,2.3 1.2,2.3 C1.2,2.2 1.3,2.2 1.4,2.1 C1.5,2.1 1.6,2.1 1.7,2.1 C1.8,2.1 1.8,2.2 1.9,2.2 C2,2.3 2.1,2.4 2.1,2.5 C2.1,2.6 2.2,2.8 2.2,2.9 C2.3,3 2.3,3.1 2.2,3.1 Z" id="Shape" fill="#C4751E"></path>
                <path d="M26,28.1 C25.9,27.6 25.6,27.1 25.3,26.6 C25,26.2 24.6,25.8 24.3,25.6 C24,25.5 23.8,25.4 23.6,25.4 C23.3,25.4 23,25.5 22.8,25.8 C22.6,26.1 22.5,26.5 22.5,27 C22.5,27.3 22.6,27.7 22.6,28 C22.7,28.5 23,29 23.3,29.5 C23.6,29.9 24,30.3 24.3,30.5 C24.6,30.6 24.8,30.7 25,30.7 C25.3,30.7 25.6,30.6 25.8,30.3 C26,30 26.1,29.6 26.1,29.1 C26.2,28.8 26.1,28.4 26,28.1 Z M24.8,28.7 C24.8,28.8 24.7,28.9 24.6,28.9 C24.5,28.9 24.4,28.9 24.3,28.8 C24.2,28.8 24.2,28.7 24.1,28.6 C24,28.5 23.9,28.3 23.9,28.2 C23.8,28 23.8,27.9 23.8,27.7 C23.8,27.6 23.8,27.5 23.8,27.4 C23.8,27.3 23.9,27.2 24,27.2 C24.1,27.2 24.2,27.2 24.3,27.3 C24.4,27.3 24.4,27.4 24.5,27.5 C24.6,27.6 24.7,27.8 24.7,27.9 C24.8,28.1 24.8,28.2 24.8,28.4 C24.9,28.5 24.9,28.6 24.8,28.7 Z" id="Shape" fill="#ED8F20"></path>
                <path d="M33.6,16.8 C33.5,16.3 33.2,15.7 32.9,15.3 C32.6,14.8 32.2,14.5 31.8,14.2 C31.5,14 31.3,14 31.1,14 C30.8,14 30.5,14.2 30.3,14.4 C30.1,14.7 30,15.1 30,15.6 C30,16 30.1,16.3 30.2,16.7 C30.3,17.2 30.6,17.8 30.9,18.2 C31.2,18.7 31.6,19 32,19.3 C32.3,19.5 32.5,19.5 32.7,19.5 C33,19.5 33.3,19.3 33.5,19.1 C33.7,18.8 33.8,18.4 33.8,17.9 C33.7,17.6 33.7,17.2 33.6,16.8 Z M32.3,17.4 C32.3,17.5 32.2,17.6 32.1,17.6 C32,17.6 31.9,17.6 31.8,17.5 C31.7,17.5 31.6,17.4 31.6,17.3 C31.5,17.2 31.4,17 31.3,16.9 C31.2,16.7 31.2,16.6 31.2,16.4 C31.2,16.3 31.2,16.2 31.2,16.1 C31.2,16 31.3,15.9 31.4,15.9 C31.5,15.9 31.6,15.9 31.7,16 C31.8,16 31.9,16.1 31.9,16.2 C32,16.3 32.1,16.5 32.2,16.6 C32.3,16.8 32.3,16.9 32.3,17.1 C32.4,17.3 32.4,17.3 32.3,17.4 Z" id="Shape" fill="#ED8F20"></path>
                <path d="M25.1,17.7 C25,17.3 24.8,16.8 24.5,16.5 C24.3,16.1 24,15.8 23.6,15.7 C23.4,15.6 23.2,15.5 23,15.5 C22.7,15.5 22.5,15.6 22.3,15.8 C22.1,16 22,16.4 22,16.8 C22,17.1 22,17.4 22.1,17.7 C22.2,18.1 22.4,18.6 22.7,18.9 C22.9,19.3 23.2,19.6 23.6,19.7 C23.8,19.8 24,19.9 24.2,19.9 C24.5,19.9 24.7,19.8 24.9,19.6 C25.1,19.4 25.2,19 25.2,18.6 C25.2,18.3 25.2,18 25.1,17.7 Z M24.1,18.2 C24.1,18.3 24,18.3 23.9,18.4 C23.8,18.4 23.7,18.4 23.6,18.4 C23.5,18.4 23.5,18.3 23.4,18.3 C23.3,18.2 23.2,18.1 23.2,18 C23.2,17.9 23.1,17.7 23.1,17.6 C23.1,17.5 23.1,17.4 23.1,17.4 C23.1,17.3 23.2,17.3 23.3,17.2 C23.4,17.2 23.5,17.2 23.6,17.2 C23.7,17.2 23.7,17.3 23.8,17.3 C23.9,17.4 24,17.5 24,17.6 C24,17.7 24.1,17.9 24.1,18 C24.1,18.1 24.1,18.1 24.1,18.2 Z" id="Shape" fill="#C4751E"></path>
            </g>
        </g>
    </g>
</svg>