<?xml version="1.0" encoding="UTF-8"?>
<svg width="26px" height="22px" viewBox="0 0 26 22" version="1.1" xmlns="http://www.w3.org/2000/svg" xmlns:xlink="http://www.w3.org/1999/xlink">
    <!-- Generator: Sketch 44.1 (41455) - http://www.bohemiancoding.com/sketch -->
    <title>left-quote</title>
    <desc>Created with Sketch.</desc>
    <defs></defs>
    <g id="Main" stroke="none" stroke-width="1" fill="none" fill-rule="evenodd">
        <g transform="translate(-970.000000, -1287.000000)" id="left-quote" fill-rule="nonzero" fill="#AFB34A">
            <g transform="translate(970.000000, 1287.000000)">
                <path d="M8.26366667,10.0328148 C7.62775,9.84920988 6.99183333,9.75604938 6.37325,9.75604938 C5.41802083,9.75604938 4.62095833,9.97496296 4.00291667,10.243037 C4.59875,8.05553086 6.03010417,4.28103704 8.8814375,3.85597531 C9.1455,3.81659259 9.36189583,3.62511111 9.4339375,3.36735802 L10.057125,1.13204938 C10.1096667,0.943012346 10.0785208,0.740666667 9.971,0.576617284 C9.86347917,0.412567901 9.6906875,0.303111111 9.49704167,0.276493827 C9.28660417,0.247703704 9.07210417,0.233037037 8.8595,0.233037037 C5.43697917,0.233037037 2.0475,3.81550617 0.617229167,8.94503704 C-0.222354167,11.9544198 -0.468541667,16.4788148 1.59954167,19.3265926 C2.7568125,20.9200988 4.4451875,21.771037 6.6178125,21.8560494 C6.62675,21.856321 6.63541667,21.8565926 6.64435417,21.8565926 C9.3250625,21.8565926 11.7021667,20.0460741 12.4252917,17.4541481 C12.8572708,15.904642 12.662,14.2796296 11.8749583,12.8773333 C11.0963125,11.4907901 9.81391667,10.4801481 8.26366667,10.0328148 Z" id="Shape"></path>
                <path d="M25.0442292,12.8776049 C24.2655833,11.4907901 22.9831875,10.4801481 21.4329375,10.0328148 C20.7970208,9.84920988 20.1611042,9.75604938 19.5427917,9.75604938 C18.5875625,9.75604938 17.7902292,9.97496296 17.1721875,10.243037 C17.7680208,8.05553086 19.199375,4.28103704 22.0509792,3.85597531 C22.3150417,3.81659259 22.5311667,3.62511111 22.6034792,3.36735802 L23.2266667,1.13204938 C23.2792083,0.943012346 23.2480625,0.740666667 23.1405417,0.576617284 C23.0332917,0.412567901 22.8605,0.303111111 22.6665833,0.276493827 C22.4564167,0.247703704 22.2419167,0.233037037 22.0290417,0.233037037 C18.6065208,0.233037037 15.2170417,3.81550617 13.7865,8.94503704 C12.9471875,11.9544198 12.701,16.4788148 14.7693542,19.3271358 C15.9263542,20.9203704 17.615,21.7715802 19.7873542,21.856321 C19.7962917,21.8565926 19.8049583,21.8568642 19.8141667,21.8568642 C22.4946042,21.8568642 24.8719792,20.0463457 25.5951042,17.4544198 C26.0265417,15.9049136 25.831,14.2796296 25.0442292,12.8776049 Z" id="Shape"></path>
            </g>
        </g>
    </g>
</svg>