<?xml version="1.0" encoding="UTF-8"?>
<svg width="28px" height="29px" viewBox="0 0 28 29" version="1.1" xmlns="http://www.w3.org/2000/svg" xmlns:xlink="http://www.w3.org/1999/xlink">
    <!-- Generator: Sketch 44.1 (41455) - http://www.bohemiancoding.com/sketch -->
    <title>Shape</title>
    <desc>Created with Sketch.</desc>
    <defs></defs>
    <g id="Main" stroke="none" stroke-width="1" fill="none" fill-rule="evenodd">
        <g transform="translate(-413.000000, -1084.000000)" id="Group-8" fill-rule="nonzero" fill="#FFFFFF">
            <g transform="translate(390.000000, 1063.000000)">
                <g id="check-form" transform="translate(23.000000, 21.000000)">
                    <path d="M21.6153396,15.3464 L21.6153396,2.33113333 L2.37273585,2.33113333 L2.37273585,26.6134667 L11.2243019,26.6134667 C11.8593208,26.6134667 12.3788396,27.1379333 12.3788396,27.779 C12.3788396,28.4200667 11.8593208,28.9445333 11.2243019,28.9445333 L1.21813208,28.9445333 C0.583113208,28.9445333 0.0635943396,28.4200667 0.0635943396,27.779 L0.0635943396,1.16553333 C0.0635943396,0.524466667 0.583179245,0 1.21813208,0 L22.7698113,0 C23.4048302,0 23.9243491,0.524466667 23.9243491,1.16553333 L23.9243491,15.3464 C23.9243491,15.9874667 23.4048302,16.5119333 22.7698113,16.5119333 C22.1347925,16.5119333 21.6153396,15.9874667 21.6153396,15.3464 Z M27.5613113,18.1826 C27.0802264,17.7552 26.3490566,17.7940667 25.9256887,18.2797333 L19.5948491,25.3896 L16.4198208,22.3008667 C15.9580189,21.8540667 15.226783,21.8734667 14.7841981,22.3397333 C14.3416132,22.806 14.3608302,23.5441333 14.8226981,23.9909333 L18.8636132,27.9149333 C19.0752642,28.1286 19.3639151,28.2452 19.671783,28.2452 C19.691,28.2452 19.691,28.2452 19.710283,28.2452 C20.0181509,28.2258 20.3260189,28.0898 20.5184528,27.8566667 L27.6382453,19.8532 C28.0808302,19.3481333 28.0423302,18.61 27.5613113,18.1826 Z M17.3819245,6.79906667 L6.99095283,6.79906667 C6.35593396,6.79906667 5.83641509,7.32353333 5.83641509,7.9646 C5.83641509,8.60566667 6.35593396,9.13013333 6.99095283,9.13013333 L17.3819245,9.13013333 C18.0169434,9.13013333 18.5364623,8.60566667 18.5364623,7.9646 C18.5364623,7.32353333 18.0169434,6.79906667 17.3819245,6.79906667 Z M18.5365283,14.3751333 C18.5365283,13.7340667 18.0170094,13.2096 17.3819906,13.2096 L6.99095283,13.2096 C6.35593396,13.2096 5.83641509,13.7340667 5.83641509,14.3751333 C5.83641509,15.0162 6.35593396,15.5406667 6.99095283,15.5406667 L17.3819245,15.5406667 C18.0169434,15.5406667 18.5365283,15.0162 18.5365283,14.3751333 Z M6.99095283,19.4258667 C6.35593396,19.4258667 5.83641509,19.9503333 5.83641509,20.5914 C5.83641509,21.2324667 6.35593396,21.7569333 6.99095283,21.7569333 L10.0697642,21.7569333 C10.704783,21.7569333 11.2243019,21.2324667 11.2243019,20.5914 C11.2243019,19.9503333 10.704783,19.4258667 10.0697642,19.4258667 L6.99095283,19.4258667 Z" id="Shape"></path>
                </g>
            </g>
        </g>
    </g>
</svg>