<?xml version="1.0" encoding="UTF-8"?>
<svg width="20px" height="25px" viewBox="0 0 20 25" version="1.1" xmlns="http://www.w3.org/2000/svg" xmlns:xlink="http://www.w3.org/1999/xlink">
    <!-- Generator: Sketch 44.1 (41455) - http://www.bohemiancoding.com/sketch -->
    <title>Page 1</title>
    <desc>Created with Sketch.</desc>
    <defs>
        <polygon id="path-1" points="1.19421822e-15 24.9749094 1.19421822e-15 -5.68434189e-14 19.9488468 -5.68434189e-14 19.9488468 24.9749094"></polygon>
    </defs>
    <g id="Main" stroke="none" stroke-width="1" fill="none" fill-rule="evenodd">
        <g id="Brands" transform="translate(-968.000000, -1248.000000)">
            <g id="Page-1" transform="translate(968.000000, 1248.000000)">
                <mask id="mask-2" fill="white">
                    <use xlink:href="#path-1"></use>
                </mask>
                <g id="Clip-2"></g>
                <path d="M2.01210059,4.39833937 C2.08263314,4.2678442 2.19002959,4.12629831 2.33588757,3.98155193 C2.59068047,3.72792874 2.96221893,3.46639493 3.43464497,3.22376208 C4.14328402,2.85896739 5.07736686,2.53529589 6.18399408,2.30516304 C7.29073964,2.07466787 8.57038462,1.93686594 9.97440828,1.93686594 C11.1970118,1.93686594 12.3252367,2.04133454 13.3271893,2.22050121 C14.0786095,2.35486111 14.7590237,2.53125 15.3541716,2.73620169 C16.2468935,3.0428442 16.9480769,3.41699879 17.405,3.79423309 C17.6336982,3.98221618 17.8003254,4.1700785 17.9042308,4.34175725 C17.9564201,4.42762681 17.9931657,4.50914855 18.016716,4.58535628 C18.0402663,4.66168478 18.050858,4.73251812 18.0509172,4.80069444 C18.0507396,4.92128623 18.0176036,5.05317029 17.9367751,5.20304952 C17.8662426,5.33354469 17.7588462,5.47509058 17.6129882,5.61977657 C17.3581361,5.87346014 16.9866568,6.13499396 16.5142308,6.37762681 C15.8055917,6.74236111 14.8714497,7.066093 13.7648817,7.29622585 C12.6581361,7.52666063 11.3784911,7.66452295 9.97440828,7.66446256 C8.75180473,7.66452295 7.62363905,7.56005435 6.62168639,7.38082729 C5.87026627,7.24652778 5.18985207,7.0700785 4.59464497,6.8651872 C3.70198225,6.5584843 3.00079882,6.1843901 2.54387574,5.8071558 C2.31517751,5.61917271 2.1485503,5.43131039 2.0445858,5.25963164 C1.99245562,5.17376208 1.95571006,5.09224034 1.93215976,5.01603261 C1.90860947,4.93970411 1.89795858,4.86887077 1.89795858,4.80069444 C1.89807692,4.68010266 1.93127219,4.54815821 2.01210059,4.39833937 M17.9368935,10.3226147 C17.8663609,10.452808 17.7589645,10.5942331 17.6130473,10.7388587 C17.3581953,10.9924215 16.9865976,11.2540157 16.5141124,11.4968297 C15.8054142,11.8618056 14.8713314,12.1860205 13.7647633,12.4166365 C12.6580178,12.647494 11.378432,12.7857186 9.97440828,12.7857186 C8.75180473,12.7857186 7.62363905,12.68125 6.62168639,12.5020833 C5.87026627,12.3677234 5.18985207,12.1913345 4.59464497,11.9863829 C3.70198225,11.6797403 3.00079882,11.3055857 2.54387574,10.9284118 C2.31517751,10.7403684 2.1485503,10.552506 2.0445858,10.3808273 C1.99245562,10.2949577 1.95571006,10.213436 1.93215976,10.1372283 C1.90860947,10.0608998 1.89795858,9.99006643 1.89795858,9.9218901 L1.89795858,7.70691425 C2.19286982,7.90057367 2.5158284,8.08106884 2.86594675,8.24749396 C3.76168639,8.67297705 4.82985207,9.008907 6.02884615,9.24000604 C7.22778107,9.47086353 8.55748521,9.596407 9.97440828,9.59646739 C11.8637574,9.59628623 13.5989053,9.37346014 15.0755917,8.9745471 C15.8140533,8.77490942 16.4880178,8.53125 17.085,8.24749396 C17.4344675,8.08131039 17.7567751,7.90105676 18.0509172,7.70769928 L18.0509172,9.9218901 C18.0507396,10.0416365 18.0177219,10.1730374 17.9368935,10.3226147 M17.9368935,15.4487621 C17.8663609,15.5789553 17.7589645,15.7203804 17.6130473,15.8650664 C17.3581953,16.1185688 16.9865976,16.380163 16.5141124,16.6229771 C15.8054142,16.9879529 14.8713314,17.3121679 13.7647633,17.5427838 C12.6580178,17.7736413 11.378432,17.9119263 9.97440828,17.9118659 C8.75180473,17.9118659 7.62363905,17.8073973 6.62168639,17.6282307 C5.87026627,17.4938708 5.18985207,17.3174819 4.59464497,17.1125302 C3.70198225,16.8058877 3.00079882,16.4317935 2.54387574,16.0545592 C2.31517751,15.8665157 2.1485503,15.6786534 2.0445858,15.5069746 C1.99245562,15.4211655 1.95571006,15.3395833 1.93215976,15.263436 C1.90860947,15.1870471 1.89795858,15.1162742 1.89795858,15.0480978 L1.89795858,12.8330616 C2.19286982,13.026721 2.5158284,13.2072162 2.86594675,13.3736413 C3.76168639,13.7991244 4.82985207,14.1350543 6.02884615,14.3661534 C7.22778107,14.5970713 8.55748521,14.7225543 9.97440828,14.7226147 C11.8637574,14.722494 13.5989053,14.4996075 15.0755917,14.1006944 C15.8140533,13.9011171 16.4880178,13.6573973 17.085,13.3736413 C17.4344675,13.2074577 17.7567751,13.0272645 18.0509172,12.8338466 L18.0509172,15.0480978 C18.0507396,15.1677838 18.0177219,15.2992452 17.9368935,15.4487621 M17.9367751,20.5716486 C17.8662426,20.7021437 17.7588462,20.8436896 17.6129882,20.9883756 C17.3581361,21.2420592 16.9866568,21.503593 16.5142308,21.7462258 C15.8055917,22.1109601 14.8714497,22.434692 13.7648817,22.6648249 C12.6581361,22.8952597 11.3784911,23.033122 9.97440828,23.0330616 C8.75180473,23.033122 7.62363905,22.9286534 6.62168639,22.7494263 C5.87026627,22.6151268 5.18985207,22.4386775 4.59464497,22.2337258 C3.70198225,21.9270833 3.00079882,21.5529891 2.54387574,21.1757548 C2.31517751,20.9877717 2.1485503,20.7999094 2.0445858,20.6282307 C1.99245562,20.5423611 1.95571006,20.4608394 1.93215976,20.3846316 C1.90860947,20.3083031 1.89795858,20.2374698 1.89795858,20.1692935 L1.89795858,17.9543176 C2.19286982,18.1479771 2.5158284,18.3284722 2.86594675,18.4948973 C3.76168639,18.92032 4.82985207,19.2563104 6.02884615,19.487349 C7.22778107,19.7182669 8.55748521,19.8438104 9.97440828,19.8438104 C11.8637574,19.8436896 13.5989053,19.6208635 15.0755917,19.2218901 C15.8140533,19.0223128 16.4880178,18.778593 17.085,18.494837 C17.4344675,18.3287138 17.7567751,18.1484601 18.0509172,17.9551027 L18.0509172,20.1692935 C18.0507396,20.2898853 18.0176036,20.4217693 17.9367751,20.5716486 M19.7316272,3.73626208 C19.6078402,3.44230072 19.4345858,3.16440217 19.2198521,2.90389493 C18.8436391,2.44797705 18.3412722,2.04399155 17.7363018,1.68976449 C16.8285503,1.158907 15.6874852,0.739160628 14.3733432,0.448943237 C13.0592604,0.159088164 11.5719822,3.01932367e-05 9.97440828,-3.01932367e-05 C8.5833432,3.01932367e-05 7.27588757,0.120682367 6.09357988,0.343146135 C5.20689349,0.510054348 4.39056213,0.734208937 3.66156805,1.00902778 C2.56837278,1.42182971 1.67002959,1.94616546 1.02778107,2.57823068 C0.707071006,2.89447464 0.45056213,3.23903986 0.273284024,3.61126208 C0.0960059172,3.98300121 -0.000266272189,4.38324275 -2.95857988e-05,4.79574275 L-2.95857988e-05,20.1742452 C-0.000207100592,20.5408514 0.0757100592,20.8980374 0.217248521,21.2338466 C0.340976331,21.5279287 0.514171598,21.8059481 0.728905325,22.0666365 C1.10511834,22.5228563 1.60742604,22.9273249 2.21233728,23.282035 C3.12014793,23.8136171 4.26115385,24.2341486 5.57535503,24.5249698 C6.88943787,24.8153684 8.37677515,24.974849 9.97440828,24.9749094 C11.3655325,24.9749094 12.6729882,24.8542572 13.8552959,24.6316727 C14.7420414,24.4647041 15.5583728,24.2404891 16.2873669,23.9654891 C17.3805621,23.5523853 18.2789645,23.0275664 18.9212722,22.3946558 C19.2419231,22.0780495 19.498432,21.7330012 19.6756509,21.3602959 C19.852929,20.9880737 19.949142,20.587349 19.9488462,20.1742452 L19.9488462,4.79574275 C19.9490237,4.42913647 19.8731657,4.07201087 19.7316272,3.73626208" id="Fill-1" fill="#FFFFFF" mask="url(#mask-2)"></path>
            </g>
        </g>
    </g>
</svg>