<?xml version="1.0" encoding="UTF-8"?>
<svg width="26px" height="19px" viewBox="0 0 26 19" version="1.1" xmlns="http://www.w3.org/2000/svg" xmlns:xlink="http://www.w3.org/1999/xlink">
    <!-- Generator: Sketch 44.1 (41455) - http://www.bohemiancoding.com/sketch -->
    <title>XMLID_823_</title>
    <desc>Created with Sketch.</desc>
    <defs></defs>
    <g id="Main" stroke="none" stroke-width="1" fill="none" fill-rule="evenodd">
        <g transform="translate(-1425.000000, -3435.000000)" id="youtube-(1)" fill-rule="nonzero" fill="#B8BFD2">
            <g transform="translate(1425.000000, 3435.000000)">
                <path d="M24.9865871,1.69661364 C24.048071,0.547804545 22.3152968,0.0791954545 19.0060839,0.0791954545 L6.99366452,0.0791954545 C3.60871613,0.0791954545 1.8465871,0.578031818 0.911593548,1.80111364 C0,2.99362273 0,4.75069091 0,7.18251818 L0,11.8175682 C0,16.5287909 1.0816,18.9208045 6.99366452,18.9208045 L19.0061677,18.9208045 C21.8758968,18.9208045 23.4660903,18.5072955 24.4948516,17.4934727 C25.5498645,16.4538273 26,14.75635 26,11.8175682 L26,7.18251818 C26,4.61795 25.9294645,2.85051818 24.9865871,1.69661364 Z M16.6920839,10.1399545 L11.2372839,13.0755409 C11.1153355,13.1411773 10.9819806,13.1737364 10.8487935,13.1737364 C10.6979935,13.1737364 10.547529,13.1319364 10.4142581,13.0488545 C10.1633161,12.8922773 10.0100839,12.6122 10.0100839,12.3101 L10.0100839,6.45775455 C10.0100839,6.15617273 10.1628968,5.87635455 10.4133355,5.71969091 C10.6638581,5.56302727 10.9754387,5.55231818 11.2353548,5.69136364 L16.6901548,8.60803636 C16.9676839,8.75640909 17.1419677,9.05142727 17.1423871,9.37330455 C17.1427226,9.69544091 16.9691935,9.99089091 16.6920839,10.1399545 Z" id="XMLID_823_"></path>
            </g>
        </g>
    </g>
</svg>