<?xml version="1.0" encoding="UTF-8"?>
<svg width="21px" height="30px" viewBox="0 0 21 30" version="1.1" xmlns="http://www.w3.org/2000/svg" xmlns:xlink="http://www.w3.org/1999/xlink">
    <!-- Generator: Sketch 44.1 (41455) - http://www.bohemiancoding.com/sketch -->
    <title>medal</title>
    <desc>Created with Sketch.</desc>
    <defs></defs>
    <g id="Main" stroke="none" stroke-width="1" fill="none" fill-rule="evenodd">
        <g transform="translate(-800.000000, -1561.000000)" id="medal" fill-rule="nonzero" fill="#FFFFFF">
            <g transform="translate(800.000000, 1561.000000)">
                <path d="M20.8741858,26.1611818 L16.8027876,15.7426364 L19.9040973,14.2967273 C20.3891416,14.1385455 20.550823,13.664 20.3891416,13.3475455 L19.0955973,9.86727273 L20.3891416,6.387 C20.550823,6.07063636 20.2274602,5.596 19.9040973,5.43781818 L16.5085088,3.85590909 L14.8915088,0.533909091 C14.7298274,0.0593636364 14.2447832,-0.0988181818 13.9213274,0.0593636364 L10.3640575,1.32490909 L6.80688053,0.0593636364 C6.4835177,-0.0988181818 5.99838053,0.217545455 5.83669912,0.533909091 L4.21979204,3.85590909 L0.82420354,5.43790909 C0.339159292,5.59609091 0.177477876,6.07063636 0.339159292,6.38709091 L1.63270354,9.86736364 L0.339159292,13.3475455 C0.177477876,13.6639091 0.500840708,14.1385455 0.82420354,14.2967273 L3.88026106,15.7204545 L0.0157964602,26.003 C0.0157964602,26.3193636 0.0157964602,26.6357273 0.177477876,26.794 C0.339159292,27.1103636 0.662522124,27.1103636 0.985977876,27.1103636 L4.86661062,26.4776364 L7.2920177,29.4832727 C7.45369912,29.6414545 7.61538053,29.7996364 7.93874336,29.7996364 L8.10042478,29.7996364 C8.42378761,29.7996364 8.58546903,29.6414545 8.74715044,29.3250909 L10.3850575,24.9684545 L12.142646,29.4832727 C12.3043274,29.7996364 12.4660088,29.9578182 12.7893717,29.9578182 L12.9510531,29.9578182 C13.2744159,29.9578182 13.4360973,29.7996364 13.5977788,29.6414545 L16.0231858,26.6358182 L19.9038186,27.2685455 C20.2271814,27.2685455 20.5505442,27.1103636 20.7123186,26.9521818 C20.8741858,26.7939091 21.0358673,26.4775455 20.8741858,26.1611818 L20.8741858,26.1611818 Z M2.27952212,6.54527273 L5.35165487,5.12154545 C5.51333628,5.12154545 5.6750177,4.96336364 5.6750177,4.80518182 L7.13024336,1.79954545 L10.2023761,2.90690909 C10.3640575,2.90690909 10.5257389,2.90690909 10.6874204,2.90690909 L13.7595531,1.79954545 L15.2147788,4.80518182 C15.2147788,4.96336364 15.3764602,5.12154545 15.5381416,5.12154545 L18.6102743,6.54527273 L17.4784115,9.55090909 C17.4784115,9.70909091 17.4784115,9.86727273 17.4784115,10.0254545 L18.6102743,13.0310909 L15.5381416,14.4548182 C15.3764602,14.4548182 15.2147788,14.613 15.2147788,14.7711818 L13.7595531,17.7768182 L10.6874204,16.6694545 C10.5257389,16.6694545 10.5257389,16.6694545 10.3640575,16.6694545 C10.2023761,16.6694545 10.2023761,16.6694545 10.2023761,16.6694545 L7.13024336,17.7768182 L5.6750177,14.7711818 C5.6750177,14.613 5.51333628,14.4548182 5.35165487,14.4548182 L2.27952212,13.0310909 L3.41138496,10.0254545 C3.41138496,9.86727273 3.41138496,9.70909091 3.41138496,9.55090909 L2.27952212,6.54527273 Z M7.77706195,27.5849091 L5.83669912,25.212 C5.6750177,24.8956364 5.35165487,24.8956364 5.02819912,24.8956364 L1.95606637,25.3701818 L4.95061062,17.3799091 L5.83669912,19.2007273 C5.99838053,19.6752727 6.48342478,19.8334545 6.80688053,19.6752727 L10.3641504,18.4097273 L11.115969,18.6770909 L7.77706195,27.5849091 L7.77706195,27.5849091 Z M15.7000088,24.7374545 C15.376646,24.7374545 15.0532832,24.8956364 14.8915088,25.0538182 L12.951146,27.4267273 L11.2162301,22.7569091 L12.5566991,19.1896364 L13.9214204,19.6752727 C14.0831018,19.6752727 14.0831018,19.6752727 14.2447832,19.6752727 C14.4064646,19.6752727 14.7298274,19.5170909 14.8915088,19.2007273 L15.8115133,17.3119091 L18.7720487,25.212 L15.7000088,24.7374545 Z" id="Shape"></path>
            </g>
        </g>
    </g>
</svg>