<?xml version="1.0" encoding="UTF-8"?>
<svg width="24px" height="28px" viewBox="0 0 24 28" version="1.1" xmlns="http://www.w3.org/2000/svg" xmlns:xlink="http://www.w3.org/1999/xlink">
    <!-- Generator: Sketch 44.1 (41455) - http://www.bohemiancoding.com/sketch -->
    <title>cloud-computing</title>
    <desc>Created with Sketch.</desc>
    <defs></defs>
    <g id="Main" stroke="none" stroke-width="1" fill="none" fill-rule="evenodd">
        <g id="Brands" transform="translate(-1199.000000, -1247.000000)" fill-rule="nonzero" fill="#FFFFFF">
            <g id="cloud-computing" transform="translate(1199.000000, 1247.000000)">
                <path d="M19.5888112,5.79389002 C19.2923077,4.29979633 18.5370629,2.9311609 17.4181818,1.89327902 C16.1090909,0.672912424 14.4083916,0 12.6293706,0 C11.2587413,0 9.92727273,0.399185336 8.78041958,1.15763747 C7.8965035,1.73930754 7.15804196,2.50916497 6.60979021,3.4101833 C6.43636364,3.38737271 6.26293706,3.37596741 6.08391608,3.37596741 C3.85174825,3.37596741 2.03356643,5.2293279 2.03356643,7.50468432 C2.03356643,7.71568228 2.05034965,7.9209776 2.07832168,8.12627291 C0.78041958,9.17556008 0.0027972028,10.7894094 0.0027972028,12.5002037 C0.0027972028,13.9372709 0.528671329,15.3401222 1.48531469,16.4464358 C2.46993007,17.5869654 3.78461538,18.2541752 5.17762238,18.3340122 C5.19440559,18.3340122 5.21678322,18.3340122 5.23356643,18.3340122 L7.77902098,18.3340122 C8.33286713,18.3340122 8.78601399,17.8720978 8.78601399,17.3075356 C8.78601399,16.7429735 8.33286713,16.2810591 7.77902098,16.2810591 L5.26153846,16.2810591 C3.4993007,16.1670061 2.01118881,14.4391039 2.01118881,12.5002037 C2.01118881,11.2513238 2.67132867,10.0879837 3.72867133,9.45498982 C4.15384615,9.20407332 4.33286713,8.67942974 4.16503497,8.21181263 C4.08671329,7.98940937 4.04195804,7.75560081 4.04195804,7.50468432 C4.04195804,6.36415479 4.95384615,5.42892057 6.07832168,5.42892057 C6.31888112,5.42892057 6.55384615,5.4688391 6.76643357,5.55437882 C7.25874126,5.74256619 7.80699301,5.51446029 8.02517483,5.02973523 C8.85874126,3.22769857 10.6657343,2.0586558 12.6237762,2.0586558 C15.2587413,2.0586558 17.4293706,4.06598778 17.6811189,6.73482688 C17.7258741,7.19674134 18.0671329,7.57311609 18.5146853,7.64725051 C20.4727273,7.98940937 21.9440559,9.83136456 21.9440559,11.9413442 C21.9440559,14.1710794 20.2321678,16.1099796 18.1174825,16.2810591 L11.9804196,16.2810591 C11.4265734,16.2810591 10.9734266,16.7429735 10.9734266,17.3075356 L10.9734266,21.8240326 C10.0727273,22.1376782 9.35664336,22.8676171 9.04895105,23.7857434 L3.07972028,23.7857434 C2.52587413,23.7857434 2.07272727,24.2476578 2.07272727,24.81222 C2.07272727,25.3767821 2.52587413,25.8386965 3.07972028,25.8386965 L9.04895105,25.8386965 C9.46853147,27.0818737 10.620979,27.9714868 11.9804196,27.9714868 C13.3398601,27.9714868 14.4923077,27.0761711 14.9118881,25.8386965 L20.8811189,25.8386965 C21.434965,25.8386965 21.8881119,25.3767821 21.8881119,24.81222 C21.8881119,24.2476578 21.434965,23.7857434 20.8811189,23.7857434 L14.0727273,23.7857434 C13.5188811,23.7857434 13.0657343,24.2476578 13.0657343,24.81222 C13.0657343,25.4224033 12.579021,25.9185336 11.9804196,25.9185336 C11.3818182,25.9185336 10.8951049,25.4224033 10.8951049,24.81222 C10.8951049,24.1906314 11.3818182,23.694501 11.9804196,23.694501 C12.5342657,23.694501 12.9874126,23.2325866 12.9874126,22.6680244 L12.9874126,18.3226069 L18.1622378,18.3226069 C18.1846154,18.3226069 18.206993,18.3226069 18.234965,18.3226069 C19.7846154,18.208554 21.2335664,17.4843177 22.3132867,16.2753564 C23.3818182,15.0778004 23.9692308,13.5380855 23.9692308,11.9356415 C23.9692308,9.10712831 22.1286713,6.59226069 19.5888112,5.79389002 Z" id="Shape"></path>
            </g>
        </g>
    </g>
</svg>