<?xml version="1.0" encoding="UTF-8"?>
<svg width="23px" height="16px" viewBox="0 0 23 16" version="1.1" xmlns="http://www.w3.org/2000/svg" xmlns:xlink="http://www.w3.org/1999/xlink">
    <!-- Generator: Sketch 44.1 (41455) - http://www.bohemiancoding.com/sketch -->
    <title>Combined Shape</title>
    <desc>Created with Sketch.</desc>
    <defs></defs>
    <g id="Main" stroke="none" stroke-width="1" fill="none" fill-rule="evenodd">
        <g transform="translate(-1491.000000, -3160.000000)" id="Group-13" fill-rule="nonzero" fill="#FFFFFF">
            <g transform="translate(390.000000, 3140.000000)">
                <g id="Group-7" transform="translate(436.000000, 0.000000)">
                    <g id="arrow-point-to-right" transform="translate(665.000000, 20.000000)">
                        <path d="M19.336762,9.00000885 L14.3280465,14.0824513 C13.897093,14.5197257 13.897093,15.229 14.3280465,15.6663097 C14.7589651,16.1040088 15.4579651,16.1040088 15.889093,15.6663097 L22.6665465,8.78910619 C22.8819884,8.57045133 22.989814,8.28383186 22.989814,7.99714159 C22.989814,7.71059292 22.8821977,7.42418584 22.6667209,7.20542478 L15.8892674,0.328115044 C15.4581395,-0.109371681 14.7591744,-0.109371681 14.3282209,0.328115044 C13.8972674,0.765424779 13.8972674,1.47462832 14.3282209,1.91211504 L19.3423378,7.00000885 L1,7.00000885 L1,7.00000885 C0.44771525,7.00000885 -6.76353751e-17,7.4477241 0,8.00000885 C6.76353751e-17,8.5522936 0.44771525,9.00000885 1,9.00000885 L19.336762,9.00000885 Z" id="Combined-Shape"></path>
                    </g>
                </g>
            </g>
        </g>
    </g>
</svg>