<?xml version="1.0" encoding="UTF-8"?>
<svg width="26px" height="23px" viewBox="0 0 26 23" version="1.1" xmlns="http://www.w3.org/2000/svg" xmlns:xlink="http://www.w3.org/1999/xlink">
    <!-- Generator: Sketch 44.1 (41455) - http://www.bohemiancoding.com/sketch -->
    <title>Group 16</title>
    <desc>Created with Sketch.</desc>
    <defs></defs>
    <g id="Main" stroke="none" stroke-width="1" fill="none" fill-rule="evenodd">
        <g id="Brands" transform="translate(-729.000000, -1249.000000)" fill-rule="nonzero" fill="#FFFFFF">
            <g id="Group-4" transform="translate(729.000000, 1249.000000)">
                <g id="Group-16">
                    <path d="M23.1901633,0.0258769671 L20.9073035,0.0258769671 C19.724741,0.0258769671 18.7626357,0.990669528 18.7626357,2.17648641 L18.7626357,20.4901803 C18.7626357,21.6760458 19.7247895,22.6408383 20.9073035,22.6408383 L23.1901633,22.6408383 C24.3727258,22.6408383 25.3347826,21.6760458 25.3347826,20.4902289 L25.3347826,2.17648641 C25.3347826,0.990669528 24.3726773,0.0258769671 23.1901633,0.0258769671 Z M23.3284038,20.4901803 C23.3284038,20.5666438 23.2663654,20.6288069 23.1901633,20.6288069 L20.9073035,20.6288069 C20.831053,20.6288069 20.769063,20.5665951 20.769063,20.4901803 L20.769063,2.17648641 C20.769063,2.10007153 20.8311015,2.0378598 20.9073035,2.0378598 L23.1901633,2.0378598 C23.2663654,2.0378598 23.3284038,2.10007153 23.3284038,2.17648641 L23.3284038,20.4901803 Z" id="Shape"></path>
                    <path d="M14.0588212,5.74891845 L11.7759614,5.74891845 C10.5934474,5.74891845 9.63134212,6.71371102 9.63134212,7.8995279 L9.63134212,20.4901803 C9.63134212,21.6760458 10.5934474,22.6408383 11.7759614,22.6408383 L14.0588212,22.6408383 C15.2413352,22.6408383 16.2034405,21.6760458 16.203489,20.4902289 L16.203489,7.8995279 C16.203489,6.71366237 15.2413352,5.74891845 14.0588212,5.74891845 Z M14.1970617,20.4901803 C14.1970617,20.5666438 14.1350232,20.6288069 14.0588212,20.6288069 L11.7759614,20.6288069 C11.6997594,20.6288069 11.6377209,20.5665951 11.6377209,20.4901803 L11.6377209,7.89947926 C11.6377209,7.82306438 11.6997594,7.76085265 11.7759614,7.76085265 L14.0588212,7.76085265 C14.1350717,7.76085265 14.1970617,7.82306438 14.1970617,7.89947926 L14.1970617,20.4901803 Z" id="Shape"></path>
                    <path d="M4.92747908,11.4719113 L2.64461929,11.4719113 C1.4621053,11.4719113 0.5,12.4367039 0.5,13.6225694 L0.5,20.4902289 C0.5,21.6760458 1.4621053,22.6408383 2.64461929,22.6408383 L4.92747908,22.6408383 C6.10999307,22.6408383 7.07209837,21.6760458 7.07209837,20.4902289 L7.07209837,13.6225694 C7.07209837,12.4366552 6.10999307,11.4719113 4.92747908,11.4719113 Z M5.06567106,20.4901803 C5.06567106,20.5666438 5.00363261,20.6288069 4.92743057,20.6288069 L2.64461929,20.6288069 C2.56841726,20.6288069 2.5063788,20.5665951 2.5063788,20.4901803 L2.5063788,13.6225694 C2.5063788,13.5461059 2.56841726,13.4838941 2.64461929,13.4838941 L4.92747908,13.4838941 C5.00368111,13.4838941 5.06571957,13.5461059 5.06571957,13.6225694 L5.06571957,20.4901803 L5.06567106,20.4901803 Z" id="Shape"></path>
                </g>
            </g>
        </g>
    </g>
</svg>