<?xml version="1.0" encoding="UTF-8"?>
<svg width="25px" height="25px" viewBox="0 0 25 25" version="1.1" xmlns="http://www.w3.org/2000/svg" xmlns:xlink="http://www.w3.org/1999/xlink">
    <!-- Generator: Sketch 44.1 (41455) - http://www.bohemiancoding.com/sketch -->
    <title>Shape</title>
    <desc>Created with Sketch.</desc>
    <defs></defs>
    <g id="Main" stroke="none" stroke-width="1" fill="none" fill-rule="evenodd">
        <g transform="translate(-402.000000, -1564.000000)" id="Group-11" fill-rule="nonzero" fill="#FFFFFF">
            <g transform="translate(390.000000, 1552.000000)">
                <g id="Group-4">
                    <g id="video" transform="translate(12.857143, 12.857143)">
                        <path d="M0.851037851,24.0989011 L5.37606838,24.0989011 L18.7228327,24.0989011 L23.2478632,24.0989011 C23.7252747,24.0989011 24.0989011,23.7252747 24.0989011,23.2478632 L24.0989011,0.851037851 C24.0989011,0.373626374 23.7252747,0 23.2478632,0 L0.851037851,0 C0.373626374,0 0,0.373626374 0,0.851037851 L0,23.2478632 C0,23.7252747 0.394383394,24.0989011 0.851037851,24.0989011 Z M19.5738706,1.7020757 L22.3968254,1.7020757 L22.3968254,5.6043956 L19.5738706,5.6043956 L19.5738706,1.7020757 Z M19.5738706,7.30647131 L22.3968254,7.30647131 L22.3968254,11.2087912 L21.5042735,11.2087912 L19.5531136,11.2087912 L19.5531136,7.30647131 L19.5738706,7.30647131 Z M19.5946276,12.9108669 L21.5457875,12.9108669 L22.4383394,12.9108669 L22.4383394,16.8131868 L19.6153846,16.8131868 L19.6153846,12.9108669 L19.5946276,12.9108669 Z M19.5738706,18.5152625 L22.3968254,18.5152625 L22.3968254,22.4175824 L19.5738706,22.4175824 L19.5738706,18.5152625 Z M6.22710623,1.7020757 L17.8717949,1.7020757 L17.8717949,11.2087912 L6.22710623,11.2087912 L6.22710623,1.7020757 Z M6.22710623,12.9108669 L17.8717949,12.9108669 L17.8717949,22.4175824 L6.22710623,22.4175824 L6.22710623,12.9108669 Z M1.7020757,1.7020757 L4.52503053,1.7020757 L4.52503053,5.6043956 L1.7020757,5.6043956 L1.7020757,1.7020757 L1.7020757,1.7020757 Z M1.7020757,7.30647131 L4.52503053,7.30647131 L4.52503053,11.2087912 L1.7020757,11.2087912 L1.7020757,7.30647131 Z M1.7020757,12.9108669 L4.52503053,12.9108669 L4.52503053,16.8131868 L1.7020757,16.8131868 L1.7020757,12.9108669 Z M1.7020757,18.5152625 L4.52503053,18.5152625 L4.52503053,22.4175824 L1.7020757,22.4175824 L1.7020757,18.5152625 Z" id="Shape"></path>
                    </g>
                </g>
            </g>
        </g>
    </g>
</svg>