<?xml version="1.0" encoding="UTF-8"?>
<svg width="32px" height="28px" viewBox="0 0 32 28" version="1.1" xmlns="http://www.w3.org/2000/svg" xmlns:xlink="http://www.w3.org/1999/xlink">
    <!-- Generator: Sketch 44.1 (41455) - http://www.bohemiancoding.com/sketch -->
    <title>Shape</title>
    <desc>Created with Sketch.</desc>
    <defs></defs>
    <g id="Main" stroke="none" stroke-width="1" fill="none" fill-rule="evenodd">
        <g transform="translate(-1189.000000, -1563.000000)" id="Group-10" fill-rule="nonzero" fill="#FFFFFF">
            <g transform="translate(1180.000000, 1552.000000)">
                <g id="Group-3">
                    <path d="M40.0122129,18.4025155 L33.6301968,12.0520311 C33.2261321,11.6499627 32.689,11.4285714 32.117593,11.4285714 C31.546186,11.4285714 31.0090539,11.6499627 30.6051078,12.0520311 L29.1053127,13.5442981 C28.8745202,13.7739503 28.7100243,14.0440807 28.6068437,14.331441 L21.5896146,13.0813354 C21.5891402,13.0812174 21.5885472,13.0812174 21.5880728,13.0810994 C18.4328814,12.4578758 15.3522884,14.4990186 14.7160081,17.6389752 L14.3923531,19.2365093 C14.0348976,21.000677 15.1866065,22.7251925 16.9595337,23.080882 C18.7325795,23.4363354 20.4656577,22.2905528 20.8231132,20.5263851 L21.0209353,19.5494783 L24.1677062,19.8232671 L32.3853881,28.0003478 L33.8747466,29.4823478 C34.1763423,29.7824534 34.1762237,30.2707888 33.8747466,30.5708944 C33.5732695,30.870882 33.0825094,30.871 32.7809137,30.5708944 L28.7913827,26.6010745 C28.5135067,26.3245714 28.0628329,26.3245714 27.7850755,26.6010745 C27.5071995,26.8775776 27.5071995,27.3259068 27.7850755,27.6024099 L31.7746065,31.5722298 C31.9207197,31.7176211 32.0011294,31.9109255 32.0011294,32.1165031 C32.0011294,32.3220807 31.9207197,32.5152671 31.7746065,32.6606584 C31.4728922,32.960764 30.9822507,32.960646 30.6807736,32.6606584 L26.6912426,28.6908385 C26.4133666,28.4143354 25.9626927,28.4143354 25.6849353,28.6908385 C25.4070593,28.9673416 25.4070593,29.4156708 25.6849353,29.6921739 L29.6744663,33.6619938 C29.976062,33.9619814 29.976062,34.4503168 29.6744663,34.7504224 C29.5283531,34.8958137 29.3340889,34.9758261 29.1276092,34.9758261 C28.9210108,34.9758261 28.7267466,34.8958137 28.5806334,34.7504224 L24.5911024,30.7806025 C24.3132264,30.5040994 23.8625526,30.5040994 23.5847951,30.7806025 C23.3069191,31.0571056 23.3069191,31.5054348 23.5847951,31.7819379 L27.5743261,35.7517578 C27.8759218,36.0518634 27.8758032,36.5401988 27.5743261,36.8403043 C27.2728491,37.1402919 26.7820889,37.1404099 26.4804933,36.8403043 L12.364558,22.7943478 L10.5004286,20.9394286 C10.2225526,20.6629255 9.77187871,20.6629255 9.49412129,20.9394286 C9.21624528,21.2159317 9.21624528,21.6642609 9.49412129,21.940764 L11.3582507,23.7956832 L13.386876,25.8142857 L12.2686119,26.9270248 C11.9024987,27.2913292 11.7007628,27.7757702 11.7007628,28.2911304 C11.7007628,28.8064907 11.9023801,29.2909317 12.2686119,29.655236 L12.6335391,30.0183602 C12.9536361,30.3368758 13.3660027,30.5301801 13.810628,30.5738447 C13.8545094,31.0162733 14.0487736,31.4266025 14.3688706,31.745 L14.7337978,32.1082422 C15.062434,32.4352547 15.4807305,32.6197081 15.9106496,32.6623106 C15.9541752,33.1052112 16.1486765,33.5161304 16.4691294,33.834882 L16.8340566,34.1980062 C17.1541536,34.5165217 17.5665202,34.7098261 18.0111456,34.7534907 C18.055027,35.1959193 18.2492911,35.6062484 18.5693881,35.924764 L18.9343154,36.2878882 C19.3122884,36.6639938 19.8087412,36.8519876 20.3051941,36.8519876 C20.8016469,36.8519876 21.2980997,36.6639938 21.6760728,36.2878882 L22.7943369,35.1751491 L25.4740674,37.8416398 C25.8890431,38.2545652 26.4406442,38.4818571 27.0273504,38.4818571 C27.6140566,38.4818571 28.1657763,38.2544472 28.5806334,37.8416398 C28.9736685,37.4505466 29.1968706,36.9368385 29.2195229,36.3876087 C29.7715984,36.3650683 30.2877385,36.1429689 30.6808922,35.7518758 C31.0860243,35.3487453 31.2970108,34.8260683 31.3189515,34.2969006 C31.850628,34.2750683 32.3760189,34.0651242 32.7810323,33.6621118 C33.1861644,33.2589814 33.3971509,32.7363043 33.4190916,32.2071366 C33.9508868,32.1853043 34.4762776,31.9753602 34.8812911,31.5722298 C35.7378086,30.7199441 35.7378086,29.3332981 34.8812911,28.4810124 L33.8951456,27.4997391 L37.5032642,23.9094472 L40.0123315,21.4127764 C40.8461968,20.582795 40.8461968,19.2323789 40.0122129,18.4025155 L40.0122129,18.4025155 Z M13.2749191,28.6537826 C13.0738949,28.4537516 13.0738949,28.1283913 13.2749191,27.9283602 L14.323566,26.8848944 L15.4175175,27.973441 L14.3688706,29.0169068 C14.167965,29.2169379 13.840752,29.2168199 13.6398464,29.0169068 L13.2749191,28.6537826 L13.2749191,28.6537826 Z M15.3751779,30.7436646 C15.1741536,30.5436335 15.1741536,30.2182733 15.3751779,30.0183602 L16.4238248,28.9748944 L17.5177763,30.063441 L16.469248,31.1069068 C16.2682237,31.3068199 15.9410108,31.3069379 15.7402237,31.1069068 L15.3751779,30.7436646 Z M17.4753181,32.8335466 C17.3779488,32.7366584 17.3243423,32.6077888 17.3243423,32.4708944 C17.3243423,32.334 17.3779488,32.2051304 17.4753181,32.1082422 L18.523965,31.0647764 L19.6177978,32.153205 L18.5691509,33.1966708 C18.3682453,33.3965839 18.0411509,33.3965839 17.8402453,33.1966708 L17.4753181,32.8335466 Z M20.6695283,35.2865528 C20.4686226,35.4865839 20.1414097,35.4864658 19.940504,35.2865528 L19.5755768,34.9234286 C19.3745526,34.7233975 19.3745526,34.3980373 19.5755768,34.1980062 L20.6242237,33.1545404 L21.7181752,34.243087 L20.6695283,35.2865528 Z M32.8886011,26.4982857 L24.9908976,18.6396025 C24.8725364,18.5218261 24.7164609,18.4493665 24.5497116,18.4349689 L20.5110809,18.083646 C20.4900889,18.0817578 20.4692156,18.0809317 20.4485795,18.0809317 C20.1130647,18.0809317 19.8190593,18.3163665 19.7515768,18.6491615 L19.4279218,20.2466957 C19.225593,21.2453168 18.2450216,21.893913 17.2407305,21.6927019 C16.7545957,21.5952236 16.3355876,21.3150621 16.0611509,20.9040248 C15.7867143,20.4929876 15.6894636,20.0001677 15.7875445,19.5163168 L16.1111995,17.9189006 C16.5934205,15.5387081 18.9307574,13.9920373 21.323717,14.4724658 C21.3286981,14.4734099 21.3337978,14.474472 21.3388976,14.4752981 L28.2538949,15.7072298 L29.1053127,16.554441 L35.9936253,23.4087205 L32.8886011,26.4982857 L32.8886011,26.4982857 Z M39.0057871,20.411323 L36.999814,22.4073851 L30.1115013,15.5531056 C29.9762992,15.4185714 29.9018194,15.2396646 29.9018194,15.0493106 C29.9018194,14.8589565 29.9762992,14.6801677 30.1115013,14.5455155 L31.6112965,13.0531304 C31.7464987,12.9185963 31.9262938,12.8444845 32.1174744,12.8444845 C32.308655,12.8444845 32.4884501,12.9185963 32.6237709,13.0531304 L39.0057871,19.4036149 C39.1409892,19.5381491 39.215469,19.7170559 39.215469,19.9074099 C39.215469,20.097764 39.1409892,20.2767888 39.0057871,20.411323 Z" id="Shape"></path>
                </g>
            </g>
        </g>
    </g>
</svg>