<?xml version="1.0" encoding="UTF-8"?>
<svg width="23px" height="22px" viewBox="0 0 23 22" version="1.1" xmlns="http://www.w3.org/2000/svg" xmlns:xlink="http://www.w3.org/1999/xlink">
    <!-- Generator: Sketch 44.1 (41455) - http://www.bohemiancoding.com/sketch -->
    <title>LinkedIn</title>
    <desc>Created with Sketch.</desc>
    <defs></defs>
    <g id="Main" stroke="none" stroke-width="1" fill="none" fill-rule="evenodd">
        <g transform="translate(-1352.000000, -3433.000000)" id="linkedin-logo" fill-rule="nonzero" fill="#B8BFD2">
            <g transform="translate(1352.000000, 3433.000000)">
                <path d="M22.9528794,13.4853058 L22.9528794,21.9765049 L18.0333341,21.9765049 L18.0333341,14.0539951 C18.0333341,12.0637961 17.3217749,10.7055631 15.5410626,10.7055631 C14.1817146,10.7055631 13.3727657,11.6209126 13.0168794,12.5063592 C12.8870974,12.8229029 12.8536914,13.2634903 12.8536914,13.7065874 L12.8536914,21.9765049 L7.93249188,21.9765049 C7.93249188,21.9765049 7.9987703,8.55837379 7.93249188,7.16815534 L12.8532111,7.16815534 L12.8532111,9.26717961 C12.843232,9.28287864 12.8302645,9.29980583 12.8208724,9.31502427 L12.8532111,9.31502427 L12.8532111,9.26717961 C13.5069768,8.25961165 14.6745336,6.82026699 17.2878886,6.82026699 C20.5256589,6.82021359 22.9528794,8.93675243 22.9528794,13.4853058 Z M2.78470766,0.0297961165 C1.10117169,0.0297961165 0,1.13476214 0,2.5878301 C0,4.00923301 1.06931323,5.14773301 2.71938979,5.14773301 L2.75226218,5.14773301 C4.46840371,5.14773301 5.5356891,4.0094466 5.5356891,2.5878301 C5.50335035,1.13476214 4.46840371,0.0297961165 2.78470766,0.0297961165 Z M0.292276102,21.9765049 L5.21160789,21.9765049 L5.21160789,7.16815534 L0.292276102,7.16815534 L0.292276102,21.9765049 Z" id="LinkedIn"></path>
            </g>
        </g>
    </g>
</svg>