<?xml version="1.0" encoding="UTF-8"?>
<svg width="22px" height="22px" viewBox="0 0 22 22" version="1.1" xmlns="http://www.w3.org/2000/svg" xmlns:xlink="http://www.w3.org/1999/xlink">
    <!-- Generator: Sketch 44.1 (41455) - http://www.bohemiancoding.com/sketch -->
    <title>Group 11</title>
    <desc>Created with Sketch.</desc>
    <defs></defs>
    <g id="Main" stroke="none" stroke-width="1" fill="none" fill-rule="evenodd">
        <g id="Brands" transform="translate(-499.000000, -1249.000000)" fill-rule="nonzero" fill="#FFFFFF">
            <g id="Group-11" transform="translate(499.000000, 1249.000000)">
                <path d="M20.9365559,4.98489426 L3.4038852,4.98489426 L6.68680363,1.70190937 C7.0761571,1.31262236 7.0761571,0.681335347 6.68680363,0.291981873 C6.29751662,-0.0973716012 5.66622961,-0.0973716012 5.27687613,0.291981873 L0.291981873,5.27687613 C-0.0973716012,5.66616314 -0.0973716012,6.29745015 0.291981873,6.68680363 L5.27687613,11.6716979 C5.47155287,11.8663746 5.72671299,11.9637462 5.98187311,11.9637462 C6.23703323,11.9637462 6.49219335,11.8663746 6.68680363,11.6716979 C7.0761571,11.2824109 7.0761571,10.6511239 6.68680363,10.2617704 L3.4038852,6.97885196 L20.9365559,6.97885196 C21.4871541,6.97885196 21.9335347,6.5324713 21.9335347,5.98187311 C21.9335347,5.43127492 21.4871541,4.98489426 20.9365559,4.98489426 Z" id="XMLID_17_"></path>
                <path d="M16.6565921,10.2617704 C16.2673051,9.87248338 15.6360181,9.87248338 15.2466647,10.2617704 C14.8573112,10.6510574 14.8573112,11.2823444 15.2466647,11.6716979 L18.5296495,14.9546828 L0.996978852,14.9546828 C0.446380665,14.9546828 0,15.4010634 0,15.9516616 C0,16.5022598 0.446380665,16.9486405 0.996978852,16.9486405 L18.5296495,16.9486405 L15.2467311,20.2316254 C14.8573776,20.6209124 14.8573776,21.2521994 15.2467311,21.6415529 C15.4413414,21.8361631 15.6965015,21.9335347 15.9516616,21.9335347 C16.2068218,21.9335347 16.4619819,21.8361631 16.6565921,21.6414864 L21.6414864,16.6565921 C22.0308399,16.2673051 22.0308399,15.6360181 21.6414864,15.2466647 L16.6565921,10.2617704 Z" id="XMLID_18_"></path>
            </g>
        </g>
    </g>
</svg>