<?xml version="1.0" encoding="UTF-8"?>
<svg width="160px" height="22px" viewBox="0 0 160 22" version="1.1" xmlns="http://www.w3.org/2000/svg" xmlns:xlink="http://www.w3.org/1999/xlink">
    <!-- Generator: Sketch 44.1 (41455) - http://www.bohemiancoding.com/sketch -->
    <title>1506_Logo_final-Couleurs</title>
    <desc>Created with Sketch.</desc>
    <defs>
        <linearGradient x1="72.0207%" y1="3.1915%" x2="84.79128%" y2="3.1915%" id="linearGradient-1">
            <stop stop-color="#84B1C0" offset="0%"></stop>
            <stop stop-color="#7CB2B4" offset="4.742572%"></stop>
            <stop stop-color="#6CB29E" offset="13.97%"></stop>
            <stop stop-color="#5EB18B" offset="23.21%"></stop>
            <stop stop-color="#52B17C" offset="32.34%"></stop>
            <stop stop-color="#4BB173" offset="41.33%"></stop>
            <stop stop-color="#48B16F" offset="50%"></stop>
            <stop stop-color="#47B072" offset="50.78%"></stop>
            <stop stop-color="#43AB8C" offset="60.81%"></stop>
            <stop stop-color="#40A69D" offset="70.86%"></stop>
            <stop stop-color="#3EA3A8" offset="80.79%"></stop>
            <stop stop-color="#3DA1AF" offset="90.57%"></stop>
            <stop stop-color="#3DA0B1" offset="100%"></stop>
        </linearGradient>
        <linearGradient x1="0.00547730829%" y1="50.0539568%" x2="99.9317684%" y2="50.0539568%" id="linearGradient-2">
            <stop stop-color="#84B1C0" offset="0%"></stop>
            <stop stop-color="#7CB2B4" offset="4.742572%"></stop>
            <stop stop-color="#6CB29E" offset="13.97%"></stop>
            <stop stop-color="#5EB18B" offset="23.21%"></stop>
            <stop stop-color="#52B17C" offset="32.34%"></stop>
            <stop stop-color="#4BB173" offset="41.33%"></stop>
            <stop stop-color="#48B16F" offset="50%"></stop>
            <stop stop-color="#47B072" offset="50.78%"></stop>
            <stop stop-color="#43AB8C" offset="60.81%"></stop>
            <stop stop-color="#40A69D" offset="70.86%"></stop>
            <stop stop-color="#3EA3A8" offset="80.79%"></stop>
            <stop stop-color="#3DA1AF" offset="90.57%"></stop>
            <stop stop-color="#3DA0B1" offset="100%"></stop>
        </linearGradient>
        <path d="M1.26829268,0 C0.585365854,0 0.0195121951,0.555862069 0.0195121951,1.22673008 L0.0195121951,1.43757432 C0.0195121951,2.10844233 0.585365854,2.6643044 1.26829268,2.6643044 L11.2390244,2.6643044 C11.9219512,2.6643044 12.4878049,2.10844233 12.4878049,1.43757432 L12.4878049,1.22673008 C12.4878049,0.555862069 11.9219512,0 11.2390244,0 L1.26829268,0 Z" id="path-3"></path>
        <linearGradient x1="0.00571687011%" y1="50.0621708%" x2="99.9339185%" y2="50.0621708%" id="linearGradient-5">
            <stop stop-color="#84B1C0" offset="0%"></stop>
            <stop stop-color="#7CB2B4" offset="4.742572%"></stop>
            <stop stop-color="#6CB29E" offset="13.97%"></stop>
            <stop stop-color="#5EB18B" offset="23.21%"></stop>
            <stop stop-color="#52B17C" offset="32.34%"></stop>
            <stop stop-color="#4BB173" offset="41.33%"></stop>
            <stop stop-color="#48B16F" offset="50%"></stop>
            <stop stop-color="#47B072" offset="50.78%"></stop>
            <stop stop-color="#43AB8C" offset="60.81%"></stop>
            <stop stop-color="#40A69D" offset="70.86%"></stop>
            <stop stop-color="#3EA3A8" offset="80.79%"></stop>
            <stop stop-color="#3DA1AF" offset="90.57%"></stop>
            <stop stop-color="#3DA0B1" offset="100%"></stop>
        </linearGradient>
        <linearGradient x1="72.0207%" y1="22.0492%" x2="84.79128%" y2="22.0492%" id="linearGradient-6">
            <stop stop-color="#84B1C0" offset="0%"></stop>
            <stop stop-color="#7CB2B4" offset="4.742572%"></stop>
            <stop stop-color="#6CB29E" offset="13.97%"></stop>
            <stop stop-color="#5EB18B" offset="23.21%"></stop>
            <stop stop-color="#52B17C" offset="32.34%"></stop>
            <stop stop-color="#4BB173" offset="41.33%"></stop>
            <stop stop-color="#48B16F" offset="50%"></stop>
            <stop stop-color="#47B072" offset="50.78%"></stop>
            <stop stop-color="#43AB8C" offset="60.81%"></stop>
            <stop stop-color="#40A69D" offset="70.86%"></stop>
            <stop stop-color="#3EA3A8" offset="80.79%"></stop>
            <stop stop-color="#3DA1AF" offset="90.57%"></stop>
            <stop stop-color="#3DA0B1" offset="100%"></stop>
        </linearGradient>
        <linearGradient x1="0.00547730829%" y1="49.971223%" x2="99.9317684%" y2="49.971223%" id="linearGradient-7">
            <stop stop-color="#84B1C0" offset="0%"></stop>
            <stop stop-color="#7CB2B4" offset="4.742572%"></stop>
            <stop stop-color="#6CB29E" offset="13.97%"></stop>
            <stop stop-color="#5EB18B" offset="23.21%"></stop>
            <stop stop-color="#52B17C" offset="32.34%"></stop>
            <stop stop-color="#4BB173" offset="41.33%"></stop>
            <stop stop-color="#48B16F" offset="50%"></stop>
            <stop stop-color="#47B072" offset="50.78%"></stop>
            <stop stop-color="#43AB8C" offset="60.81%"></stop>
            <stop stop-color="#40A69D" offset="70.86%"></stop>
            <stop stop-color="#3EA3A8" offset="80.79%"></stop>
            <stop stop-color="#3DA1AF" offset="90.57%"></stop>
            <stop stop-color="#3DA0B1" offset="100%"></stop>
        </linearGradient>
        <path d="M1.26829268,0.0575029727 C0.585365854,0.0575029727 0.0195121951,0.613365042 0.0195121951,1.28423306 L0.0195121951,1.49507729 C0.0195121951,2.1659453 0.585365854,2.72180737 1.26829268,2.72180737 L11.2390244,2.72180737 C11.9219512,2.72180737 12.4878049,2.1659453 12.4878049,1.49507729 L12.4878049,1.28423306 C12.4878049,0.613365042 11.9219512,0.0575029727 11.2390244,0.0575029727 L1.26829268,0.0575029727 Z" id="path-8"></path>
        <linearGradient x1="0.00571687011%" y1="49.976542%" x2="99.9339185%" y2="49.976542%" id="linearGradient-10">
            <stop stop-color="#84B1C0" offset="0%"></stop>
            <stop stop-color="#7CB2B4" offset="4.742572%"></stop>
            <stop stop-color="#6CB29E" offset="13.97%"></stop>
            <stop stop-color="#5EB18B" offset="23.21%"></stop>
            <stop stop-color="#52B17C" offset="32.34%"></stop>
            <stop stop-color="#4BB173" offset="41.33%"></stop>
            <stop stop-color="#48B16F" offset="50%"></stop>
            <stop stop-color="#47B072" offset="50.78%"></stop>
            <stop stop-color="#43AB8C" offset="60.81%"></stop>
            <stop stop-color="#40A69D" offset="70.86%"></stop>
            <stop stop-color="#3EA3A8" offset="80.79%"></stop>
            <stop stop-color="#3DA1AF" offset="90.57%"></stop>
            <stop stop-color="#3DA0B1" offset="100%"></stop>
        </linearGradient>
        <linearGradient x1="72.0207%" y1="12.53992%" x2="82.72336%" y2="12.53992%" id="linearGradient-11">
            <stop stop-color="#84B1C0" offset="0%"></stop>
            <stop stop-color="#7CB2B4" offset="4.742572%"></stop>
            <stop stop-color="#6CB29E" offset="13.97%"></stop>
            <stop stop-color="#5EB18B" offset="23.21%"></stop>
            <stop stop-color="#52B17C" offset="32.34%"></stop>
            <stop stop-color="#4BB173" offset="41.33%"></stop>
            <stop stop-color="#48B16F" offset="50%"></stop>
            <stop stop-color="#47B072" offset="50.78%"></stop>
            <stop stop-color="#43AB8C" offset="60.81%"></stop>
            <stop stop-color="#40A69D" offset="70.86%"></stop>
            <stop stop-color="#3EA3A8" offset="80.79%"></stop>
            <stop stop-color="#3DA1AF" offset="90.57%"></stop>
            <stop stop-color="#3DA0B1" offset="100%"></stop>
        </linearGradient>
        <linearGradient x1="0.00652985075%" y1="49.6374101%" x2="99.8447761%" y2="49.6374101%" id="linearGradient-12">
            <stop stop-color="#84B1C0" offset="0%"></stop>
            <stop stop-color="#7CB2B4" offset="4.742572%"></stop>
            <stop stop-color="#6CB29E" offset="13.97%"></stop>
            <stop stop-color="#5EB18B" offset="23.21%"></stop>
            <stop stop-color="#52B17C" offset="32.34%"></stop>
            <stop stop-color="#4BB173" offset="41.33%"></stop>
            <stop stop-color="#48B16F" offset="50%"></stop>
            <stop stop-color="#47B072" offset="50.78%"></stop>
            <stop stop-color="#43AB8C" offset="60.81%"></stop>
            <stop stop-color="#40A69D" offset="70.86%"></stop>
            <stop stop-color="#3EA3A8" offset="80.79%"></stop>
            <stop stop-color="#3DA1AF" offset="90.57%"></stop>
            <stop stop-color="#3DA0B1" offset="100%"></stop>
        </linearGradient>
        <path d="M1.26829268,0.15334126 C0.585365854,0.15334126 0.0195121951,0.709203329 0.0195121951,1.38007134 L0.0195121951,1.59091558 C0.0195121951,2.26178359 0.585365854,2.81764566 1.26829268,2.81764566 L9.22926829,2.81764566 C9.91219512,2.81764566 10.4780488,2.26178359 10.4780488,1.59091558 L10.4780488,1.38007134 C10.4780488,0.709203329 9.91219512,0.15334126 9.22926829,0.15334126 L1.26829268,0.15334126 L1.26829268,0.15334126 Z" id="path-13"></path>
        <linearGradient x1="0.00899401869%" y1="49.6231489%" x2="100.034471%" y2="49.6231489%" id="linearGradient-15">
            <stop stop-color="#84B1C0" offset="0%"></stop>
            <stop stop-color="#7CB2B4" offset="4.742572%"></stop>
            <stop stop-color="#6CB29E" offset="13.97%"></stop>
            <stop stop-color="#5EB18B" offset="23.21%"></stop>
            <stop stop-color="#52B17C" offset="32.34%"></stop>
            <stop stop-color="#4BB173" offset="41.33%"></stop>
            <stop stop-color="#48B16F" offset="50%"></stop>
            <stop stop-color="#47B072" offset="50.78%"></stop>
            <stop stop-color="#43AB8C" offset="60.81%"></stop>
            <stop stop-color="#40A69D" offset="70.86%"></stop>
            <stop stop-color="#3EA3A8" offset="80.79%"></stop>
            <stop stop-color="#3DA1AF" offset="90.57%"></stop>
            <stop stop-color="#3DA0B1" offset="100%"></stop>
        </linearGradient>
    </defs>
    <g id="Main" stroke="none" stroke-width="1" fill="none" fill-rule="evenodd">
        <g transform="translate(-390.000000, -3338.000000)" id="1506_Logo_final-Couleurs">
            <g transform="translate(390.000000, 3338.000000)">
                <path d="M8.8195122,5.40527943 L12.7414634,15.5641379 L14.8097561,20.7394055 C15.0439024,21.3336029 15.5512195,21.6786207 16.195122,21.6786207 C17.0146341,21.6786207 17.6585366,21.0652556 17.6585366,20.260214 C17.6585366,20.1068728 17.6195122,19.8576932 17.5414634,19.6660166 L10.204878,1.41840666 C9.95121951,0.824209275 9.44390244,0.479191439 8.8195122,0.479191439 C8.3902439,0.479191439 7.80487805,0.632532699 7.47317073,1.41840666 L0.136585366,19.6276813 C0.0390243902,19.8385256 0,20.1260404 0,20.260214 C0,21.0269203 0.663414634,21.6786207 1.44390244,21.6786207 C2.06829268,21.6786207 2.59512195,21.3144352 2.82926829,20.7010702 L8.8195122,5.40527943 Z" id="Shape" fill="#434342" fill-rule="nonzero"></path>
                <path d="M35.8439024,18.975981 L28.0195122,18.975981 L28.0195122,2.14677765 C28.0195122,1.36090369 27.395122,0.728370987 26.5756098,0.728370987 C25.7756098,0.728370987 25.1317073,1.34173603 25.1317073,2.14677765 L25.1317073,20.2793817 C25.1317073,21.0652556 25.7560976,21.6977883 26.5756098,21.6977883 L35.8439024,21.6977883 C36.6243902,21.6977883 37.2292683,21.103591 37.2292683,20.3368847 C37.2292683,19.5701784 36.6243902,18.975981 35.8439024,18.975981" id="Shape" fill="#434342" fill-rule="nonzero"></path>
                <path d="M51.7073171,9.60299643 L57.7756098,2.91348395 C57.9707317,2.70263971 58.1853659,2.39595719 58.1853659,1.93593341 C58.1853659,1.15005945 57.502439,0.498359096 56.702439,0.498359096 C56.2536585,0.498359096 55.8439024,0.690035672 55.5707317,1.01588585 L47.5512195,10.0438526 L47.5512195,1.91676576 C47.5512195,1.1308918 46.9268293,0.498359096 46.1073171,0.498359096 C45.3073171,0.498359096 44.6634146,1.11172414 44.6634146,1.91676576 L44.6634146,20.2793817 C44.6634146,21.0652556 45.2878049,21.6977883 46.1073171,21.6977883 C46.9073171,21.6977883 47.5512195,21.0844233 47.5512195,20.2793817 L47.5512195,14.1265636 L49.7560976,11.7114388 L56.4487805,21.046088 C56.7609756,21.4677765 57.1707317,21.6977883 57.6585366,21.6977883 C58.4585366,21.6977883 59.102439,21.0844233 59.102439,20.2793817 C59.102439,19.8960285 58.9658537,19.6276813 58.8097561,19.4168371 L51.7073171,9.60299643 Z" id="Shape" fill="#434342" fill-rule="nonzero"></path>
                <path d="M104.292683,0.498359096 C103.746341,0.498359096 103.317073,0.747538644 103.02439,1.28423306 L96.0780488,13.99239 L89.1707317,1.28423306 C88.9170732,0.78587396 88.4487805,0.498359096 87.902439,0.498359096 C87.1219512,0.498359096 86.497561,1.11172414 86.497561,1.87843044 L86.497561,20.2985493 C86.497561,21.0652556 87.1219512,21.6786207 87.902439,21.6786207 C88.6829268,21.6786207 89.3073171,21.0652556 89.3073171,20.2985493 L89.3073171,7.37954816 L94.8097561,17.4425684 C95.102439,18.0175981 95.6682927,18.2284423 96.0780488,18.2284423 C96.6243902,18.2284423 97.0731707,17.9409275 97.3463415,17.4425684 L102.887805,7.3603805 L102.887805,20.2793817 C102.887805,21.046088 103.512195,21.659453 104.292683,21.659453 C105.073171,21.659453 105.697561,21.046088 105.697561,20.2793817 L105.697561,1.87843044 C105.697561,1.11172414 105.073171,0.498359096 104.292683,0.498359096" id="Shape" fill="#434342" fill-rule="nonzero"></path>
                <path d="M114.614634,0.498359096 C113.834146,0.498359096 113.170732,1.15005945 113.170732,1.91676576 L113.170732,20.2793817 C113.170732,21.046088 113.834146,21.6977883 114.614634,21.6977883 C115.395122,21.6977883 116.058537,21.046088 116.058537,20.2793817 L116.058537,1.91676576 C116.058537,1.1308918 115.395122,0.498359096 114.614634,0.498359096" id="Shape" fill="#434342" fill-rule="nonzero"></path>
                <path d="M133.326829,2.798478 C135.258537,2.798478 137.190244,3.69935791 138.243902,5.13693222 C138.536585,5.50111772 138.907317,5.67362663 139.356098,5.67362663 C140.136585,5.67362663 140.741463,5.07942925 140.741463,4.31272295 C140.741463,4.00604043 140.643902,3.71852556 140.44878,3.45017836 C138.926829,1.38007134 136.273171,0.15334126 133.326829,0.15334126 C127.004878,0.15334126 123.512195,3.98687277 123.512195,10.9447325 C123.512195,17.9792628 126.907317,21.716956 133.326829,21.716956 C136.253659,21.716956 139.063415,20.4135553 140.487805,18.4009512 C140.663415,18.132604 140.741463,17.9025922 140.741463,17.6150773 C140.741463,16.848371 140.136585,16.2541736 139.356098,16.2541736 C138.907317,16.2541736 138.478049,16.4650178 138.22439,16.8100357 C137.229268,18.2284423 135.395122,19.0526516 133.326829,19.0526516 C128.643902,19.0526516 126.458537,16.4841855 126.458537,10.9447325 C126.458537,5.52028537 128.760976,2.798478 133.326829,2.798478" id="Shape" fill="#434342" fill-rule="nonzero"></path>
                <path d="M153.15122,9.08546968 C150.673171,8.2612604 148.526829,7.53288942 148.526829,5.596956 C148.526829,3.81436385 149.970732,2.77931034 152.468293,2.77931034 C154.926829,2.77931034 156.253659,4.02520809 157.014634,4.96442331 C157.307317,5.3286088 157.678049,5.50111772 158.126829,5.50111772 C158.907317,5.50111772 159.512195,4.90692033 159.512195,4.14021403 C159.512195,3.85269917 159.434146,3.60351962 159.258537,3.35434007 C157.873171,1.30340071 155.395122,0.134173603 152.468293,0.134173603 C147.434146,0.134173603 145.639024,3.08599287 145.639024,5.596956 C145.639024,9.60299643 149.092683,10.6955529 152.117073,11.6731034 C154.75122,12.5164804 157.014634,13.2256837 157.014634,15.5258026 C157.014634,17.8450892 155.414634,19.0143163 152.253659,19.0143163 C149.326829,19.0143163 147.863415,17.3850654 147.258537,16.4075149 C147.004878,15.9858264 146.556098,15.7366468 146.04878,15.7366468 C145.268293,15.7366468 144.663415,16.3308442 144.663415,17.0975505 C144.663415,17.3467301 144.702439,17.519239 144.858537,17.8259215 C145.814634,19.6085137 148.312195,21.6786207 152.253659,21.6786207 C157.112195,21.6786207 159.902439,19.4360048 159.902439,15.5258026 C159.902439,11.3472533 156.312195,10.1396908 153.15122,9.08546968" id="Shape" fill="#434342" fill-rule="nonzero"></path>
                <g id="Group" transform="translate(66.536585, 0.958383)">
                    <g>
                        <g id="SVGID_1_-link" fill-rule="nonzero" fill="url(#linearGradient-2)">
                            <path d="M1.26829268,0 C0.585365854,0 0.0195121951,0.555862069 0.0195121951,1.22673008 L0.0195121951,1.43757432 C0.0195121951,2.10844233 0.585365854,2.6643044 1.26829268,2.6643044 L11.2390244,2.6643044 C11.9219512,2.6643044 12.4878049,2.10844233 12.4878049,1.43757432 L12.4878049,1.22673008 C12.4878049,0.555862069 11.9219512,0 11.2390244,0 L1.26829268,0 Z" id="SVGID_1_"></path>
                        </g>
                        <g id="Clipped">
                            <mask id="mask-4" fill="white">
                                <use xlink:href="#path-3"></use>
                            </mask>
                            <g id="SVGID_1_"></g>
                            <rect id="Rectangle-path" fill="url(#linearGradient-5)" fill-rule="nonzero" mask="url(#mask-4)" x="0.0195121951" y="0" width="12.4682927" height="2.6643044"></rect>
                        </g>
                    </g>
                    <g transform="translate(0.000000, 18.017598)">
                        <g id="SVGID_5_-link" fill-rule="nonzero" fill="url(#linearGradient-7)">
                            <path d="M1.26829268,0.0575029727 C0.585365854,0.0575029727 0.0195121951,0.613365042 0.0195121951,1.28423306 L0.0195121951,1.49507729 C0.0195121951,2.1659453 0.585365854,2.72180737 1.26829268,2.72180737 L11.2390244,2.72180737 C11.9219512,2.72180737 12.4878049,2.1659453 12.4878049,1.49507729 L12.4878049,1.28423306 C12.4878049,0.613365042 11.9219512,0.0575029727 11.2390244,0.0575029727 L1.26829268,0.0575029727 Z" id="SVGID_5_"></path>
                        </g>
                        <g id="Clipped">
                            <mask id="mask-9" fill="white">
                                <use xlink:href="#path-8"></use>
                            </mask>
                            <g id="SVGID_5_"></g>
                            <rect id="Rectangle-path" fill="url(#linearGradient-10)" fill-rule="nonzero" mask="url(#mask-9)" x="0.0195121951" y="0.0575029727" width="12.4682927" height="2.6643044"></rect>
                        </g>
                    </g>
                    <g transform="translate(0.000000, 8.817122)">
                        <g id="SVGID_9_-link" fill-rule="nonzero" fill="url(#linearGradient-12)">
                            <path d="M1.26829268,0.15334126 C0.585365854,0.15334126 0.0195121951,0.709203329 0.0195121951,1.38007134 L0.0195121951,1.59091558 C0.0195121951,2.26178359 0.585365854,2.81764566 1.26829268,2.81764566 L9.22926829,2.81764566 C9.91219512,2.81764566 10.4780488,2.26178359 10.4780488,1.59091558 L10.4780488,1.38007134 C10.4780488,0.709203329 9.91219512,0.15334126 9.22926829,0.15334126 L1.26829268,0.15334126 L1.26829268,0.15334126 Z" id="SVGID_9_"></path>
                        </g>
                        <g id="Clipped">
                            <mask id="mask-14" fill="white">
                                <use xlink:href="#path-13"></use>
                            </mask>
                            <g id="SVGID_9_"></g>
                            <rect id="Rectangle-path" fill="url(#linearGradient-15)" fill-rule="nonzero" mask="url(#mask-14)" x="0.0195121951" y="0.15334126" width="10.4390244" height="2.6643044"></rect>
                        </g>
                    </g>
                </g>
            </g>
        </g>
    </g>
</svg>