<?xml version="1.0" encoding="UTF-8"?>
<svg width="210px" height="29px" viewBox="0 0 210 29" version="1.1" xmlns="http://www.w3.org/2000/svg" xmlns:xlink="http://www.w3.org/1999/xlink">
    <!-- Generator: Sketch 44.1 (41455) - http://www.bohemiancoding.com/sketch -->
    <title>1506_Logo_final-Couleurs</title>
    <desc>Created with Sketch.</desc>
    <defs>
        <linearGradient x1="72.0207%" y1="3.1915%" x2="84.79128%" y2="3.1915%" id="linearGradient-1">
            <stop stop-color="#84B1C0" offset="0%"></stop>
            <stop stop-color="#7CB2B4" offset="4.742572%"></stop>
            <stop stop-color="#6CB29E" offset="13.97%"></stop>
            <stop stop-color="#5EB18B" offset="23.21%"></stop>
            <stop stop-color="#52B17C" offset="32.34%"></stop>
            <stop stop-color="#4BB173" offset="41.33%"></stop>
            <stop stop-color="#48B16F" offset="50%"></stop>
            <stop stop-color="#47B072" offset="50.78%"></stop>
            <stop stop-color="#43AB8C" offset="60.81%"></stop>
            <stop stop-color="#40A69D" offset="70.86%"></stop>
            <stop stop-color="#3EA3A8" offset="80.79%"></stop>
            <stop stop-color="#3DA1AF" offset="90.57%"></stop>
            <stop stop-color="#3DA0B1" offset="100%"></stop>
        </linearGradient>
        <linearGradient x1="0.00547730829%" y1="50.0539568%" x2="99.9317684%" y2="50.0539568%" id="linearGradient-2">
            <stop stop-color="#84B1C0" offset="0%"></stop>
            <stop stop-color="#7CB2B4" offset="4.742572%"></stop>
            <stop stop-color="#6CB29E" offset="13.97%"></stop>
            <stop stop-color="#5EB18B" offset="23.21%"></stop>
            <stop stop-color="#52B17C" offset="32.34%"></stop>
            <stop stop-color="#4BB173" offset="41.33%"></stop>
            <stop stop-color="#48B16F" offset="50%"></stop>
            <stop stop-color="#47B072" offset="50.78%"></stop>
            <stop stop-color="#43AB8C" offset="60.81%"></stop>
            <stop stop-color="#40A69D" offset="70.86%"></stop>
            <stop stop-color="#3EA3A8" offset="80.79%"></stop>
            <stop stop-color="#3DA1AF" offset="90.57%"></stop>
            <stop stop-color="#3DA0B1" offset="100%"></stop>
        </linearGradient>
        <path d="M1.66463415,0 C0.768292683,0 0.0256097561,0.734210526 0.0256097561,1.62032668 L0.0256097561,1.89882033 C0.0256097561,2.78493648 0.768292683,3.51914701 1.66463415,3.51914701 L14.7512195,3.51914701 C15.647561,3.51914701 16.3902439,2.78493648 16.3902439,1.89882033 L16.3902439,1.62032668 C16.3902439,0.734210526 15.647561,0 14.7512195,0 L1.66463415,0 Z" id="path-3"></path>
        <linearGradient x1="0.00571687011%" y1="50.0621708%" x2="99.9339185%" y2="50.0621708%" id="linearGradient-5">
            <stop stop-color="#84B1C0" offset="0%"></stop>
            <stop stop-color="#7CB2B4" offset="4.742572%"></stop>
            <stop stop-color="#6CB29E" offset="13.97%"></stop>
            <stop stop-color="#5EB18B" offset="23.21%"></stop>
            <stop stop-color="#52B17C" offset="32.34%"></stop>
            <stop stop-color="#4BB173" offset="41.33%"></stop>
            <stop stop-color="#48B16F" offset="50%"></stop>
            <stop stop-color="#47B072" offset="50.78%"></stop>
            <stop stop-color="#43AB8C" offset="60.81%"></stop>
            <stop stop-color="#40A69D" offset="70.86%"></stop>
            <stop stop-color="#3EA3A8" offset="80.79%"></stop>
            <stop stop-color="#3DA1AF" offset="90.57%"></stop>
            <stop stop-color="#3DA0B1" offset="100%"></stop>
        </linearGradient>
    </defs>
    <g id="Main" stroke="none" stroke-width="1" fill="none" fill-rule="evenodd">
        <g transform="translate(-390.000000, -57.000000)" id="1506_Logo_final-Couleurs">
            <g transform="translate(390.000000, 57.000000)">
                <path d="M11.5756098,7.13956443 L16.7231707,20.5578947 L19.4378049,27.3936479 C19.745122,28.1784936 20.4109756,28.6342105 21.2560976,28.6342105 C22.3317073,28.6342105 23.1768293,27.8240472 23.1768293,26.7607078 C23.1768293,26.558167 23.1256098,26.2290381 23.0231707,25.9758621 L13.3939024,1.87350272 C13.0609756,1.08865699 12.395122,0.632940109 11.5756098,0.632940109 C11.0121951,0.632940109 10.2439024,0.835480944 9.80853659,1.87350272 L0.179268293,25.9252269 C0.0512195122,26.2037205 0,26.5834846 0,26.7607078 C0,27.773412 0.870731707,28.6342105 1.89512195,28.6342105 C2.71463415,28.6342105 3.40609756,28.153176 3.71341463,27.3430127 L11.5756098,7.13956443 Z" id="Shape" fill="#FFFFFF" fill-rule="nonzero"></path>
                <path d="M47.045122,25.0644283 L36.7756098,25.0644283 L36.7756098,2.83557169 C36.7756098,1.79754991 35.9560976,0.962068966 34.8804878,0.962068966 C33.8304878,0.962068966 32.9853659,1.7722323 32.9853659,2.83557169 L32.9853659,26.7860254 C32.9853659,27.8240472 33.804878,28.6595281 34.8804878,28.6595281 L47.045122,28.6595281 C48.0695122,28.6595281 48.8634146,27.8746824 48.8634146,26.8619782 C48.8634146,25.849274 48.0695122,25.0644283 47.045122,25.0644283" id="Shape" fill="#FFFFFF" fill-rule="nonzero"></path>
                <path d="M67.8658537,12.6841198 L75.8304878,3.84827586 C76.0865854,3.56978221 76.3682927,3.16470054 76.3682927,2.55707804 C76.3682927,1.51905626 75.4719512,0.658257713 74.4219512,0.658257713 C73.8329268,0.658257713 73.295122,0.911433757 72.9365854,1.34183303 L62.4109756,13.2664247 L62.4109756,2.53176044 C62.4109756,1.49373866 61.5914634,0.658257713 60.5158537,0.658257713 C59.4658537,0.658257713 58.6207317,1.46842105 58.6207317,2.53176044 L58.6207317,26.7860254 C58.6207317,27.8240472 59.4402439,28.6595281 60.5158537,28.6595281 C61.5658537,28.6595281 62.4109756,27.8493648 62.4109756,26.7860254 L62.4109756,18.6590744 L65.304878,15.4690563 L74.0890244,27.7987296 C74.4987805,28.3557169 75.0365854,28.6595281 75.6768293,28.6595281 C76.7268293,28.6595281 77.5719512,27.8493648 77.5719512,26.7860254 C77.5719512,26.2796733 77.3926829,25.9252269 77.1878049,25.6467332 L67.8658537,12.6841198 Z" id="Shape" fill="#FFFFFF" fill-rule="nonzero"></path>
                <path d="M136.884146,0.658257713 C136.167073,0.658257713 135.603659,0.98738657 135.219512,1.69627949 L126.102439,18.4818512 L117.036585,1.69627949 C116.703659,1.03802178 116.089024,0.658257713 115.371951,0.658257713 C114.347561,0.658257713 113.528049,1.46842105 113.528049,2.48112523 L113.528049,26.811343 C113.528049,27.8240472 114.347561,28.6342105 115.371951,28.6342105 C116.396341,28.6342105 117.215854,27.8240472 117.215854,26.811343 L117.215854,9.74727768 L124.437805,23.03902 C124.821951,23.7985481 125.564634,24.0770417 126.102439,24.0770417 C126.819512,24.0770417 127.408537,23.6972777 127.767073,23.03902 L135.040244,9.72196007 L135.040244,26.7860254 C135.040244,27.7987296 135.859756,28.6088929 136.884146,28.6088929 C137.908537,28.6088929 138.728049,27.7987296 138.728049,26.7860254 L138.728049,2.48112523 C138.728049,1.46842105 137.908537,0.658257713 136.884146,0.658257713" id="Shape" fill="#FFFFFF" fill-rule="nonzero"></path>
                <path d="M150.431707,0.658257713 C149.407317,0.658257713 148.536585,1.51905626 148.536585,2.53176044 L148.536585,26.7860254 C148.536585,27.7987296 149.407317,28.6595281 150.431707,28.6595281 C151.456098,28.6595281 152.326829,27.7987296 152.326829,26.7860254 L152.326829,2.53176044 C152.326829,1.49373866 151.456098,0.658257713 150.431707,0.658257713" id="Shape" fill="#FFFFFF" fill-rule="nonzero"></path>
                <path d="M174.991463,3.69637024 C177.526829,3.69637024 180.062195,4.88629764 181.445122,6.78511797 C181.829268,7.26615245 182.315854,7.49401089 182.904878,7.49401089 C183.929268,7.49401089 184.723171,6.70916515 184.723171,5.69646098 C184.723171,5.29137931 184.595122,4.91161525 184.339024,4.55716878 C182.341463,1.82286751 178.858537,0.202540835 174.991463,0.202540835 C166.693902,0.202540835 162.109756,5.26606171 162.109756,14.4563521 C162.109756,23.7479129 166.565854,28.6848457 174.991463,28.6848457 C178.832927,28.6848457 182.520732,26.9632486 184.390244,24.3049002 C184.620732,23.9504537 184.723171,23.6466425 184.723171,23.2668784 C184.723171,22.2541742 183.929268,21.4693285 182.904878,21.4693285 C182.315854,21.4693285 181.752439,21.7478221 181.419512,22.203539 C180.113415,24.0770417 177.706098,25.1656987 174.991463,25.1656987 C168.845122,25.1656987 165.976829,21.7731397 165.976829,14.4563521 C165.976829,7.29147005 168.99878,3.69637024 174.991463,3.69637024" id="Shape" fill="#FFFFFF" fill-rule="nonzero"></path>
                <path d="M201.010976,12.0005445 C197.758537,10.9118875 194.941463,9.94981851 194.941463,7.39274047 C194.941463,5.03820327 196.836585,3.67105263 200.114634,3.67105263 C203.341463,3.67105263 205.082927,5.31669691 206.081707,6.55725953 C206.465854,7.03829401 206.952439,7.26615245 207.541463,7.26615245 C208.565854,7.26615245 209.359756,6.48130672 209.359756,5.46860254 C209.359756,5.08883848 209.257317,4.75970962 209.026829,4.43058076 C207.208537,1.7215971 203.956098,0.17722323 200.114634,0.17722323 C193.507317,0.17722323 191.15122,4.0761343 191.15122,7.39274047 C191.15122,12.6841198 195.684146,14.1272232 199.653659,15.4184211 C203.110976,16.5323956 206.081707,17.469147 206.081707,20.5072595 C206.081707,23.5706897 203.981707,25.1150635 199.832927,25.1150635 C195.991463,25.1150635 194.070732,22.9630672 193.276829,21.6718693 C192.943902,21.114882 192.354878,20.7857532 191.689024,20.7857532 C190.664634,20.7857532 189.870732,21.5705989 189.870732,22.5833031 C189.870732,22.9124319 189.921951,23.1402904 190.126829,23.5453721 C191.381707,25.8999093 194.659756,28.6342105 199.832927,28.6342105 C206.209756,28.6342105 209.871951,25.6720508 209.871951,20.5072595 C209.871951,14.9880218 205.159756,13.3930127 201.010976,12.0005445" id="Shape" fill="#FFFFFF" fill-rule="nonzero"></path>
                <g id="Group" transform="translate(87.329268, 1.265880)">
                    <g>
                        <g id="SVGID_1_-link" fill-rule="nonzero" fill="url(#linearGradient-2)">
                            <path d="M1.66463415,0 C0.768292683,0 0.0256097561,0.734210526 0.0256097561,1.62032668 L0.0256097561,1.89882033 C0.0256097561,2.78493648 0.768292683,3.51914701 1.66463415,3.51914701 L14.7512195,3.51914701 C15.647561,3.51914701 16.3902439,2.78493648 16.3902439,1.89882033 L16.3902439,1.62032668 C16.3902439,0.734210526 15.647561,0 14.7512195,0 L1.66463415,0 Z" id="SVGID_1_"></path>
                        </g>
                        <g id="Clipped">
                            <mask id="mask-4" fill="white">
                                <use xlink:href="#path-3"></use>
                            </mask>
                            <g id="SVGID_1_"></g>
                            <rect id="Rectangle-path" fill="url(#linearGradient-5)" fill-rule="nonzero" mask="url(#mask-4)" x="0.0256097561" y="0" width="16.3646341" height="3.51914701"></rect>
                        </g>
                    </g>
                </g>
                <rect id="Rectangle-7" fill="#FFFFFF" x="87.3292683" y="1" width="17" height="4" rx="2"></rect>
                <rect id="Rectangle-7" fill="#FFFFFF" x="87" y="25" width="17" height="4" rx="2"></rect>
                <rect id="Rectangle-7" fill="#FFFFFF" x="87" y="13" width="14" height="4" rx="2"></rect>
            </g>
        </g>
    </g>
</svg>