<?xml version="1.0" encoding="UTF-8"?>
<svg width="26px" height="26px" viewBox="0 0 26 26" version="1.1" xmlns="http://www.w3.org/2000/svg" xmlns:xlink="http://www.w3.org/1999/xlink">
    <!-- Generator: Sketch 44.1 (41455) - http://www.bohemiancoding.com/sketch -->
    <title>Group 10</title>
    <desc>Created with Sketch.</desc>
    <defs></defs>
    <g id="Main" stroke="none" stroke-width="1" fill="none" fill-rule="evenodd">
        <g id="Brands" transform="translate(-1434.000000, -1248.000000)" fill="#FFFFFF">
            <g id="Group-10" transform="translate(1434.000000, 1248.000000)">
                <g id="Group-6" transform="translate(16.588038, 15.936203)">
                    <path d="M8.33488836,1.50138075 C8.04573858,1.50126161 7.78232277,1.61908985 7.59301127,1.80863962 C7.4034615,1.99795111 7.28569283,2.26136692 7.28581197,2.55045713 L7.28581197,5.8301686 L1.81257715,0.35693378 C1.60813504,0.152372522 1.33858358,0.0494366301 1.07070007,0.0496153382 C0.802816561,0.0494366301 0.533265107,0.152372522 0.328882558,0.35693378 C0.12438087,0.561316329 0.0214449775,0.830867783 0.0216236857,1.09875129 C0.0214449775,1.3666348 0.12438087,1.63612669 0.328942127,1.84050924 L5.8020578,7.31356535 L2.52258462,7.31356535 C2.23337527,7.31350578 1.97001903,7.43127444 1.78070754,7.62088379 C1.59115776,7.81013571 1.47338909,8.07355152 1.47350823,8.36264173 C1.47338909,8.65173194 1.59115776,8.91514775 1.78070754,9.10445924 C1.97001903,9.29400902 2.23337527,9.41183726 2.52258462,9.41171812 L8.33500749,9.41171812 C8.62415727,9.41183726 8.88757308,9.29400902 9.07688458,9.10445924 C9.26643435,8.91514775 9.38414345,8.65173194 9.38408388,8.36264173 L9.38408388,2.55045713 C9.38408388,2.26130735 9.26625564,1.99795111 9.07670587,1.80863962 C8.88739437,1.61908985 8.62403814,1.50126161 8.33488836,1.50138075" id="Fill-4"></path>
                </g>
                <g id="Group-9" transform="translate(0.623443, 15.936203)">
                    <path d="M8.31372335,0.0496212952 C8.04578027,0.049442587 7.77599054,0.152199771 7.57142929,0.356880167 L7.69777595,0.483286396 L7.57136972,0.356939737 L2.09873059,5.82999584 L2.09873059,2.55046309 C2.09879016,2.26137288 1.98108107,1.99795707 1.79153129,1.80864558 C1.6022198,1.6190958 1.33880399,1.50126756 1.04965421,1.5013867 C0.760504429,1.50126756 0.497088622,1.6190958 0.307777126,1.80864558 C0.118227352,1.99795707 0.000518253623,2.26137288 0.000577823005,2.55046309 L0.000577823005,8.36288597 C0.000518253623,8.65197618 0.118227352,8.91539198 0.307777126,9.10470348 C0.497088622,9.29425325 0.760504429,9.41208149 1.04965421,9.41196235 L6.86183881,9.41196235 C7.15098859,9.41202192 7.41434483,9.29425325 7.60365632,9.10470348 C7.79320609,8.91539198 7.91103433,8.65203575 7.91091519,8.36288597 C7.91103433,8.07379575 7.79326566,7.81037995 7.60371589,7.62106845 C7.4144044,7.43151868 7.15104816,7.31369044 6.86183881,7.31380958 L3.58224648,7.31380958 L9.05506431,1.84045563 C9.25938729,1.63625178 9.36250189,1.36687904 9.36232319,1.0990551 C9.36250189,0.831112017 9.25962557,0.561322286 9.05488561,0.356761029 C8.8508009,0.152497618 8.58148773,0.049442587 8.31372335,0.0496212952" id="Fill-7"></path>
                </g>
                <path d="M24.9229141,8.8386293e-05 L19.1104912,8.8386293e-05 C18.8213414,-3.0752471e-05 18.5579256,0.117797485 18.3686737,0.307347259 C18.1790644,0.496658754 18.0613553,0.760014992 18.0614148,1.04916477 C18.0613553,1.33825498 18.1790644,1.60167079 18.3686737,1.79092272 C18.5579256,1.98053206 18.8213414,2.09830073 19.1104912,2.09824116 L22.3902027,2.09824116 L17.0903148,7.39842692 C16.8859918,7.60263076 16.7828772,7.87200351 16.7830559,8.13982745 C16.7828772,8.40777053 16.8856939,8.67756026 17.0904935,8.88212152 C17.2948165,9.08656363 17.5643679,9.18949953 17.8321918,9.18926125 C18.1001349,9.18943996 18.3696268,9.08638493 18.5740689,8.88200238 L23.8739568,3.58175705 L23.8739568,6.86158765 C23.8738973,7.15067786 23.9916064,7.41409367 24.1812157,7.60334559 C24.3704676,7.79295494 24.6338834,7.9107236 24.9230332,7.91066403 C25.2122426,7.9107236 25.4755988,7.79295494 25.6649103,7.60334559 C25.8544601,7.41409367 25.9722288,7.15067786 25.9721096,6.86158765 L25.9721096,1.04916477 C25.9721096,0.759955423 25.8543409,0.496539616 25.6647316,0.307287689 C25.4754201,0.117737916 25.2120639,-3.0752471e-05 24.9229141,8.8386293e-05 Z" id="Fill-10"></path>
                <path d="M0.930583014,0.30752019 C1.11983494,0.117910847 1.38325075,0.000142179127 1.6724601,0.000142179127 L7.48488297,0.000142179127 C7.77397318,2.30403633e-05 8.03738899,0.117791709 8.22664092,0.307341482 C8.41625026,0.496652978 8.53401893,0.760009216 8.53395936,1.04921857 C8.53401893,1.33836835 8.41625026,1.60178415 8.22664092,1.79103608 C8.03738899,1.98064542 7.77397318,2.09835452 7.48488297,2.09829495 L4.20505237,2.09829495 L9.5052977,7.39818286 C9.70968025,7.60262498 9.81273528,7.87211687 9.81255657,8.14005995 C9.81279485,8.40788389 9.70985896,8.67743534 9.50541684,8.88175832 C9.30085558,9.08655786 9.03106585,9.18937461 8.76312277,9.1891959 C8.49529883,9.18937461 8.22592609,9.08626001 8.02172224,8.88193703 L2.72153648,3.58204912 L2.72153648,6.86176058 C2.72159605,7.15091036 2.60382738,7.41432617 2.41421804,7.60357809 C2.22496611,7.79318744 1.96155031,7.91089654 1.6724601,7.91083697 C1.38331032,7.91089654 1.11995408,7.79318744 0.930642583,7.60357809 C0.74109281,7.41432617 0.623264572,7.15091036 0.623383711,6.86176058 L0.623383711,1.0493377 C0.623264572,0.760187924 0.74103324,0.496831686 0.930583014,0.30752019 Z" id="Fill-10"></path>
            </g>
        </g>
    </g>
</svg>