<?xml version="1.0" encoding="UTF-8"?>
<svg width="30px" height="30px" viewBox="0 0 30 30" version="1.1" xmlns="http://www.w3.org/2000/svg" xmlns:xlink="http://www.w3.org/1999/xlink">
    <!-- Generator: Sketch 44.1 (41455) - http://www.bohemiancoding.com/sketch -->
    <title>stats</title>
    <desc>Created with Sketch.</desc>
    <defs></defs>
    <g id="Main" stroke="none" stroke-width="1" fill="none" fill-rule="evenodd">
        <g transform="translate(-990.000000, -1083.000000)" id="Group-9" fill-rule="nonzero" fill="#FFFFFF">
            <g transform="translate(970.000000, 1063.000000)">
                <g id="stats" transform="translate(20.000000, 20.000000)">
                    <path d="M4.23061224,24.1591837 C4.44489796,24.3061224 5.27142857,24.7163265 5.96938776,23.8346939 L10.6959184,16.9285714 L15.6979592,21.7530612 C15.9612245,22.0040816 16.322449,22.1387755 16.6897959,22.0959184 C17.0510204,22.0591837 17.3816327,21.8693878 17.5959184,21.5693878 L25.8918367,9.67346939 L26.1918367,13.6530612 C26.2653061,14.6632653 27.2142857,14.8285714 27.5326531,14.8040816 C28.2183673,14.7489796 28.7387755,14.155102 28.6836735,13.4632653 L28.1571429,6.46530612 C28.1081633,5.77959184 27.5081633,5.25918367 26.8163265,5.31428571 L19.8183673,5.84081633 C19.1326531,5.88979592 18.6122449,6.48979592 18.6673469,7.18163265 C18.7163265,7.86734694 19.3102041,8.38163265 20.0081633,8.33265306 L23.9877551,8.03265306 L16.3836735,18.9306122 L11.3693878,14.0938776 C11.1061224,13.8367347 10.7387755,13.7081633 10.377551,13.7510204 C10.0102041,13.7877551 9.67959184,13.9836735 9.47142857,14.2897959 L3.90612245,22.4204082 C3.51428571,22.9897959 3.66122449,23.7673469 4.23061224,24.1591837 L4.23061224,24.1591837 Z" id="Shape"></path>
                    <path d="M28.7510204,27.5020408 L2.49795918,27.5020408 L2.49795918,1.24897959 C2.49795918,0.557142857 1.94081633,0 1.24897959,0 C0.557142857,0 0,0.557142857 0,1.24897959 L0,28.7510204 C0,29.4428571 0.557142857,30 1.24897959,30 L28.7510204,30 C29.4428571,30 30,29.4428571 30,28.7510204 C30,28.0591837 29.4428571,27.5020408 28.7510204,27.5020408 Z" id="Shape"></path>
                </g>
            </g>
        </g>
    </g>
</svg>